<svg width="55" height="54" viewBox="0 0 55 54" fill="none" xmlns="http://www.w3.org/2000/svg">
<path d="M26.908 18.5044C25.9084 18.5044 24.9313 18.8009 24.1003 19.3563C23.2693 19.9117 22.6218 20.7012 22.2395 21.6247C21.8573 22.5483 21.7576 23.5645 21.953 24.5447C22.1484 25.525 22.6302 26.4252 23.3374 27.1316C24.0446 27.838 24.9454 28.3187 25.9258 28.513C26.9063 28.7073 27.9224 28.6064 28.8455 28.2231C29.7686 27.8398 30.5573 27.1913 31.1118 26.3597C31.6663 25.528 31.9616 24.5506 31.9605 23.5511C31.9589 22.2121 31.4259 20.9284 30.4786 19.9822C29.5312 19.0359 28.247 18.5044 26.908 18.5044ZM26.908 27.4394C26.1389 27.4394 25.3872 27.2113 24.7477 26.7841C24.1083 26.3568 23.6099 25.7496 23.3156 25.0391C23.0213 24.3286 22.9443 23.5468 23.0943 22.7925C23.2444 22.0382 23.6147 21.3454 24.1585 20.8016C24.7023 20.2578 25.3951 19.8875 26.1494 19.7375C26.9036 19.5874 27.6855 19.6644 28.396 19.9587C29.1065 20.253 29.7137 20.7514 30.141 21.3908C30.5682 22.0303 30.7963 22.782 30.7963 23.5511C30.7947 24.5818 30.3846 25.57 29.6557 26.2988C28.9269 27.0277 27.9387 27.4379 26.908 27.4394Z" fill="#4D2C19"/>
<path d="M54.227 26.5431L51.3864 19.0167C51.3448 18.9053 51.2701 18.8093 51.1722 18.7417C51.0744 18.674 50.9582 18.638 50.8393 18.6384H47.079C46.9601 18.638 46.8439 18.674 46.7461 18.7417C46.6482 18.8093 46.5735 18.9053 46.5319 19.0167L43.831 26.1938H34.797V12.2238C34.7944 12.1603 34.7827 12.0976 34.7621 12.0375L30.3674 0.395821C30.3286 0.281145 30.2551 0.181395 30.1571 0.110452C30.059 0.0395093 29.9412 0.000902009 29.8202 3.07254e-06H23.9994C23.8804 -0.000383263 23.7642 0.0356719 23.6664 0.103316C23.5686 0.17096 23.4938 0.266947 23.4522 0.378358L19.0575 12.0201C19.0369 12.0801 19.0251 12.1429 19.0225 12.2063V26.1938H10.431L7.73009 19.0167C7.68846 18.9053 7.61371 18.8093 7.51588 18.7417C7.41806 18.674 7.30186 18.638 7.18293 18.6384H3.42266C3.30373 18.638 3.18753 18.674 3.08971 18.7417C2.99188 18.8093 2.91713 18.9053 2.8755 19.0167L0.0349271 26.5431C0.011668 26.6024 -0.0001811 26.6656 2.09211e-06 26.7293V53.4179C2.09211e-06 53.5723 0.0613288 53.7204 0.170491 53.8295C0.279653 53.9387 0.427708 54 0.582087 54H53.6857C53.8401 54 53.9881 53.9387 54.0973 53.8295C54.2064 53.7204 54.2678 53.5723 54.2678 53.4179V26.7759C54.2727 26.6962 54.2588 26.6164 54.227 26.5431ZM3.8243 19.7909H6.78129L9.1853 26.1938H7.78247L5.80921 22.7013C5.75887 22.6103 5.68508 22.5345 5.59551 22.4817C5.50594 22.4289 5.40386 22.401 5.29988 22.401C5.19591 22.401 5.09383 22.4289 5.00426 22.4817C4.91469 22.5345 4.8409 22.6103 4.79056 22.7013L2.82311 26.1938H1.42029L3.8243 19.7909ZM6.98502 52.8242H3.62639V47.5854C3.62639 47.1393 3.80362 46.7114 4.1191 46.3959C4.43458 46.0804 4.86246 45.9032 5.30861 45.9032C5.75477 45.9032 6.18265 46.0804 6.49813 46.3959C6.81361 46.7114 6.99084 47.1393 6.99084 47.5854L6.98502 52.8242ZM9.44724 32.7364V52.8358H8.14919V47.5971C8.14919 46.8422 7.8493 46.1182 7.3155 45.5844C6.7817 45.0506 6.0577 44.7507 5.30279 44.7507C4.54788 44.7507 3.82389 45.0506 3.29009 45.5844C2.75629 46.1182 2.4564 46.8422 2.4564 47.5971V52.8358H1.15835V27.358H3.16072C3.26329 27.3584 3.36415 27.3317 3.45308 27.2806C3.54201 27.2295 3.61585 27.1558 3.66714 27.0669L5.30279 24.1565L6.93845 27.0669C6.98974 27.1558 7.06358 27.2295 7.15251 27.2806C7.24144 27.3317 7.3423 27.3584 7.44487 27.358H9.44724V32.7364ZM16.4963 52.8358H13.1318V47.5971C13.1318 47.1509 13.3091 46.723 13.6245 46.4076C13.94 46.0921 14.3679 45.9148 14.8141 45.9148C15.2602 45.9148 15.6881 46.0921 16.0036 46.4076C16.319 46.723 16.4963 47.1509 16.4963 47.5971V52.8358ZM19.0225 52.8358H17.6605V47.5971C17.6605 46.8422 17.3606 46.1182 16.8268 45.5844C16.293 45.0506 15.569 44.7507 14.8141 44.7507C14.0591 44.7507 13.3352 45.0506 12.8014 45.5844C12.2676 46.1182 11.9677 46.8422 11.9677 47.5971V52.8358H10.6114V33.3185H19.0225V52.8358ZM19.0225 32.1544H10.6114V27.358H19.0225V32.1544ZM24.401 1.16417H29.4186L33.3767 11.6417H29.046L27.4919 4.82549C27.4603 4.69962 27.3876 4.58791 27.2853 4.50809C27.183 4.42826 27.057 4.38491 26.9272 4.38491C26.7975 4.38491 26.6714 4.42826 26.5692 4.50809C26.4669 4.58791 26.3942 4.69962 26.3626 4.82549L24.7735 11.6417H20.4428L24.401 1.16417ZM20.1867 12.8059H24.5058L24.2089 14.0981H22.5209C22.3665 14.0981 22.2184 14.1594 22.1093 14.2686C22.0001 14.3777 21.9388 14.5258 21.9388 14.6802V17.4625H20.1925L20.1867 12.8059ZM30.0821 52.8358H23.7607V43.8077C23.7607 42.9694 24.0937 42.1655 24.6865 41.5727C25.2792 40.98 26.0831 40.647 26.9214 40.647C27.7597 40.647 28.5636 40.98 29.1564 41.5727C29.7491 42.1655 30.0821 42.9694 30.0821 43.8077V52.8358ZM33.6329 52.8358H31.2463V43.8077C31.2463 42.6607 30.7907 41.5606 29.9796 40.7495C29.1685 39.9385 28.0685 39.4828 26.9214 39.4828C25.7744 39.4828 24.6743 39.9385 23.8633 40.7495C23.0522 41.5606 22.5965 42.6607 22.5965 43.8077V52.8358H20.1867V18.6267H22.515C22.6694 18.6267 22.8175 18.5654 22.9266 18.4562C23.0358 18.3471 23.0971 18.199 23.0971 18.0446V15.2623H24.6688C24.8033 15.2656 24.9348 15.2221 25.041 15.1393C25.1471 15.0565 25.2213 14.9395 25.2508 14.8082L26.9098 7.5671L28.5745 14.8199C28.6041 14.9512 28.6783 15.0682 28.7844 15.151C28.8905 15.2338 29.0221 15.2772 29.1566 15.2739H30.7283V18.0446C30.7283 18.199 30.7896 18.3471 30.8987 18.4562C31.0079 18.5654 31.156 18.6267 31.3103 18.6267H33.6387L33.6329 52.8358ZM33.6329 17.4625H31.8866V14.6802C31.8866 14.5258 31.8253 14.3777 31.7161 14.2686C31.607 14.1594 31.4589 14.0981 31.3045 14.0981H29.6165L29.3138 12.8059H33.6329V17.4625ZM40.9089 52.8358H37.5445V47.5971C37.5445 47.1509 37.7217 46.723 38.0372 46.4076C38.3527 46.0921 38.7805 45.9148 39.2267 45.9148C39.6728 45.9148 40.1007 46.0921 40.4162 46.4076C40.7317 46.723 40.9089 47.1509 40.9089 47.5971V52.8358ZM43.6505 52.8358H42.0731V47.5971C42.0731 46.8422 41.7732 46.1182 41.2394 45.5844C40.7056 45.0506 39.9816 44.7507 39.2267 44.7507C38.4718 44.7507 37.7478 45.0506 37.214 45.5844C36.6802 46.1182 36.3803 46.8422 36.3803 47.5971V52.8358H34.797V33.3185H43.6505V52.8358ZM43.6505 32.1544H34.797V27.358H43.6505V32.1544ZM47.4807 19.7909H50.4376L52.8417 26.1938H51.4388L49.4656 22.7013C49.4152 22.6103 49.3414 22.5345 49.2519 22.4817C49.1623 22.4289 49.0602 22.401 48.9562 22.401C48.8523 22.401 48.7502 22.4289 48.6606 22.4817C48.571 22.5345 48.4972 22.6103 48.4469 22.7013L46.4736 26.1938H45.0766L47.4807 19.7909ZM50.6414 52.8242H47.2827V47.5854C47.2827 47.1393 47.46 46.7114 47.7755 46.3959C48.0909 46.0804 48.5188 45.9032 48.965 45.9032C49.4111 45.9032 49.839 46.0804 50.1545 46.3959C50.47 46.7114 50.6472 47.1393 50.6472 47.5854L50.6414 52.8242ZM53.1036 52.8009V52.8358H51.8055V47.5971C51.8055 46.8422 51.5057 46.1182 50.9719 45.5844C50.438 45.0506 49.7141 44.7507 48.9591 44.7507C48.2042 44.7507 47.4802 45.0506 46.9464 45.5844C46.4126 46.1182 46.1128 46.8422 46.1128 47.5971V52.8358H44.8147V27.358H46.8171C46.9196 27.3584 47.0205 27.3317 47.1094 27.2806C47.1984 27.2295 47.2722 27.1558 47.3235 27.0669L48.9591 24.1565L50.5948 27.0669C50.6461 27.1558 50.7199 27.2295 50.8089 27.2806C50.8978 27.3317 50.9986 27.3584 51.1012 27.358H53.1036V52.8009Z" fill="#4D2C19"/>
<path d="M7.56582 37.1836H3.04302C2.88864 37.1836 2.74059 37.2449 2.63143 37.3541C2.52226 37.4633 2.46094 37.6113 2.46094 37.7657V42.2943C2.46094 42.4487 2.52226 42.5968 2.63143 42.7059C2.74059 42.8151 2.88864 42.8764 3.04302 42.8764H7.57164C7.72602 42.8764 7.87407 42.8151 7.98324 42.7059C8.0924 42.5968 8.15373 42.4487 8.15373 42.2943V37.7657C8.15373 37.6888 8.13848 37.6126 8.10887 37.5416C8.07925 37.4706 8.03585 37.4062 7.98118 37.352C7.92651 37.2979 7.86166 37.2552 7.79036 37.2263C7.71907 37.1973 7.64275 37.1829 7.56582 37.1836ZM6.98374 41.7122H3.62511V38.3478H6.98956L6.98374 41.7122Z" fill="#4D2C19"/>
<path d="M2.46094 29.7564V34.285C2.46094 34.4394 2.52226 34.5875 2.63143 34.6966C2.74059 34.8058 2.88864 34.8671 3.04302 34.8671H7.57164C7.72602 34.8671 7.87407 34.8058 7.98324 34.6966C8.0924 34.5875 8.15373 34.4394 8.15373 34.285V29.7564C8.15373 29.602 8.0924 29.454 7.98324 29.3448C7.87407 29.2356 7.72602 29.1743 7.57164 29.1743H3.04302C2.88864 29.1743 2.74059 29.2356 2.63143 29.3448C2.52226 29.454 2.46094 29.602 2.46094 29.7564ZM3.62511 30.3385H6.98956V33.7029H3.62511V30.3385Z" fill="#4D2C19"/>
<path d="M51.4232 36.6714H46.8946C46.7402 36.6714 46.5922 36.7327 46.483 36.8419C46.3738 36.951 46.3125 37.0991 46.3125 37.2535V41.7821C46.3125 41.9365 46.3738 42.0845 46.483 42.1937C46.5922 42.3028 46.7402 42.3642 46.8946 42.3642H51.4232C51.5776 42.3642 51.7256 42.3028 51.8348 42.1937C51.944 42.0845 52.0053 41.9365 52.0053 41.7821V37.2535C52.0053 37.0991 51.944 36.951 51.8348 36.8419C51.7256 36.7327 51.5776 36.6714 51.4232 36.6714ZM50.8411 41.2H47.4767V37.8356H50.8411V41.2Z" fill="#4D2C19"/>
<path d="M46.3125 29.2381V33.7609C46.3125 33.9153 46.3738 34.0633 46.483 34.1725C46.5922 34.2816 46.7402 34.343 46.8946 34.343H51.4232C51.5776 34.343 51.7256 34.2816 51.8348 34.1725C51.944 34.0633 52.0053 33.9153 52.0053 33.7609V29.2381C52.0053 29.0837 51.944 28.9357 51.8348 28.8265C51.7256 28.7173 51.5776 28.656 51.4232 28.656H46.8946C46.7402 28.656 46.5922 28.7173 46.483 28.8265C46.3738 28.9357 46.3125 29.0837 46.3125 29.2381ZM47.4767 29.8202H50.8411V33.1788H47.4767V29.8202Z" fill="#4D2C19"/>
</svg>
