<svg width="56" height="46" viewBox="0 0 56 46" fill="none" xmlns="http://www.w3.org/2000/svg">
<g clip-path="url(#clip0_4_2689)">
<path d="M14.6013 2.65187V5.26803H15.4498H16.2983V8.9448V12.6216H9.72254H3.14678V14.6721V16.7226H1.59123H0.0356722V31.2882V45.8539L7.64375 45.868C11.8155 45.868 19.565 45.8963 24.8539 45.9387C30.1427 45.967 39.3205 45.9529 45.2599 45.8963L56.0357 45.8115V31.26V16.7226H55.3286H54.6215V14.6721V12.6216L47.4518 12.5933L40.268 12.5509L40.2256 8.90238L40.1973 5.26803H40.8336H41.47V2.65187V0.0357071H28.0357H14.6013V2.65187ZM40.0559 2.65187V3.85389H28.0357H16.0155V2.65187V1.44985H28.0357H40.0559V2.65187ZM21.6438 7.70035L21.6013 10.1468H19.6922H17.7831L17.7407 7.70035L17.7124 5.26803H19.6922H21.672L21.6438 7.70035ZM33.268 7.74278V10.2175L28.1488 10.1892L23.0155 10.1468L22.973 7.70035L22.9448 5.26803H28.1064H33.268V7.74278ZM38.8963 7.70035L38.8539 10.1468L36.7751 10.1892L34.6821 10.2317V7.74278V5.26803H36.8033H38.9246L38.8963 7.70035ZM38.8539 11.6175C38.8963 11.6882 38.8821 12.2963 38.8397 12.961L38.7407 14.1771H28.3185H17.8963L17.7973 12.961C17.7549 12.2963 17.7407 11.6882 17.7831 11.6175C17.8397 11.5468 22.0821 11.4903 28.3185 11.4903C34.5549 11.4903 38.7973 11.5468 38.8539 11.6175ZM16.2983 15.3791V16.7226H10.4296H4.56092V15.3791V14.0357H10.4296H16.2983V15.3791ZM53.2074 15.3791V16.7226H46.773H40.3387V15.3791V14.0357H46.773H53.2074V15.3791ZM38.9246 16.1569V16.7226H36.6619H34.3993V17.6418V18.561H28.0357H21.672V17.6418V16.7226H19.6922H17.7124V16.1569V15.5913H28.3185H38.9246V16.1569ZM3.57103 19.9044V21.6862L2.48214 21.6438L1.37911 21.6014L1.33668 19.862L1.29426 18.1367H2.43971H3.57103V19.9044ZM8.06799 19.862L8.02557 21.6014H6.54072H5.05587L5.01345 19.862L4.97103 18.1367H6.54072H8.11042L8.06799 19.862ZM12.5508 19.9044V21.6014L11.0377 21.6438L9.51042 21.6862V19.9044V18.1226L11.0377 18.165L12.5508 18.2074V19.9044ZM17.0054 19.9044V21.6862L15.4922 21.6438L13.965 21.6014L13.9225 19.862L13.8801 18.1367H15.4498H17.0054V19.9044ZM20.2296 19.862L20.1872 21.6014L19.3104 21.6438L18.4195 21.6862V19.9044V18.1367H19.3387H20.272L20.2296 19.862ZM38.0761 19.9044V21.6862L36.9872 21.6438L35.8842 21.6014L35.8417 19.862L35.7993 18.1367H36.9448H38.0761V19.9044ZM42.573 19.862L42.5306 21.6014L41.0175 21.6438L39.4902 21.6862V19.9044V18.1367H41.0458H42.6155L42.573 19.862ZM46.9852 19.9044V21.6721H45.5003H44.0155V19.9044V18.1367H45.5003H46.9852V19.9044ZM51.4821 19.862L51.4397 21.6014H49.9549H48.47L48.4276 19.862L48.3852 18.1367H49.9549H51.5246L51.4821 19.862ZM54.7347 19.862L54.6922 21.6014L53.8155 21.6438L52.9246 21.6862V19.9044V18.1367H53.8437H54.7771L54.7347 19.862ZM34.3993 32.2074V44.4398H33.9751H33.5508V36.5488C33.5508 28.1347 33.5225 27.8236 32.8296 26.466C32.3912 25.5892 31.3872 24.6701 30.3266 24.1751C29.464 23.765 29.2518 23.7226 28.0357 23.7226C26.8195 23.7226 26.6074 23.765 25.7589 24.1751C24.6417 24.7266 23.6377 25.7448 23.1145 26.8761L22.7326 27.6822L22.6902 36.0539L22.6478 44.4398H22.167H21.672V32.2074V19.9751H28.0357H34.3993V32.2074ZM20.2296 33.7206L20.2579 44.4398H10.7831H1.3084V33.7913C1.3084 27.9226 1.35082 23.0862 1.40739 23.0438C1.44981 22.9872 5.70638 22.9589 10.8397 22.9731L20.1872 23.0155L20.2296 33.7206ZM54.7347 33.7206L54.7629 44.4398H45.2882H35.8134V33.7913C35.8134 27.9226 35.8559 23.0862 35.9124 23.0438C35.9549 22.9872 40.2114 22.9589 45.3448 22.9731L54.6922 23.0155L54.7347 33.7206ZM30.0296 25.5892C30.4539 25.8296 31.0054 26.2822 31.2458 26.6074C32.1367 27.7529 32.1367 27.8236 32.1367 36.5488V44.4398H28.1064H24.0761V36.266V28.0923L24.4438 27.3569C24.868 26.4943 25.8438 25.5892 26.664 25.2923C27.6256 24.9387 29.1104 25.066 30.0296 25.5892Z" fill="#4D2C19"/>
<path d="M5.41029 28.1063V31.2881H6.11736H6.82443V28.1063V24.9245H6.11736H5.41029V28.1063Z" fill="#4D2C19"/>
<path d="M10.0754 28.1063V31.2881H10.7825H11.4896V28.1063V24.9245H10.7825H10.0754V28.1063Z" fill="#4D2C19"/>
<path d="M15.3073 28.1063V31.2881H16.0144H16.7215V28.1063V24.9245H16.0144H15.3073V28.1063Z" fill="#4D2C19"/>
<path d="M39.9133 28.1063V31.2881H40.6203H41.3274V28.1063V24.9245H40.6203H39.9133V28.1063Z" fill="#4D2C19"/>
<path d="M44.5823 28.1063V31.2881H45.2894H45.9965V28.1063V24.9245H45.2894H44.5823V28.1063Z" fill="#4D2C19"/>
<path d="M49.8143 28.1058V31.2876H50.5213H51.2284V28.1058V24.924H50.5213H49.8143V28.1058Z" fill="#4D2C19"/>
</g>
<defs>
<clipPath id="clip0_4_2689">
<rect width="55.19" height="45.26" fill="white" transform="scale(1.01468)"/>
</clipPath>
</defs>
</svg>
