<svg width="38" height="40" viewBox="0 0 38 40" fill="none" xmlns="http://www.w3.org/2000/svg">
<path d="M31.9905 16.4406C31.7601 17.2842 31.3129 18.9205 30.8691 20.5501C30.7442 20.9764 30.5856 21.3922 30.3948 21.7934C29.5376 23.6669 29.3988 25.6454 29.3276 27.6476C29.2294 30.4155 28.8635 33.1529 27.7794 35.7785C27.5538 36.3229 27.2674 36.84 26.9256 37.32C25.4383 39.4171 22.5214 39.5052 21.0002 37.4183C20.3925 36.5005 19.9234 35.4982 19.6078 34.4437C19.1267 33.0344 18.8151 31.5708 18.3916 30.1445C18.2436 29.6739 18.0315 29.2259 17.7614 28.8131C16.928 27.5223 15.207 27.38 14.3024 28.6267C13.6952 29.5442 13.2111 30.5374 12.8626 31.5809C12.2087 33.302 11.6666 35.0637 11.0365 36.7949C10.8682 37.1867 10.6319 37.5457 10.3386 37.8553C10.0578 38.1994 9.70574 38.4786 9.30665 38.6736C8.90756 38.8685 8.47095 38.9747 8.02689 38.9846C7.58284 38.9946 7.14189 38.9082 6.73444 38.7314C6.327 38.5545 5.96275 38.2915 5.66676 37.9603C4.59489 36.7876 3.88845 35.3276 3.63404 33.7593C3.18884 31.4845 2.87437 29.1861 2.6922 26.8752C2.58952 25.207 2.25779 23.5609 1.70634 21.9831C1.02877 20.1198 0.351197 18.2294 0.07678 16.2983C-0.38397 12.968 1.2727 10.4034 4.18287 8.55704C5.82938 7.5102 7.6893 7.63892 9.52213 8.12339C10.4606 8.36731 11.3922 8.62819 12.3069 8.93648C14.6091 9.73391 17.1103 9.7482 19.4215 8.97714C20.5733 8.61125 21.7524 8.29958 22.9347 8.02178C23.9705 7.75809 25.0549 7.75107 26.094 8.00139C27.133 8.25171 28.0953 8.7518 28.8974 9.45823C30.9335 11.1454 32.0006 13.2221 31.9905 16.4406Z" fill="white"/>
<path d="M14.7827 7.29373C15.4811 7.45161 16.162 7.67858 16.8155 7.9713C17.5901 8.33902 18.3315 8.77314 19.0311 9.26883C19.8883 9.78718 21.3112 10.2378 23.7436 9.79397" stroke="#4D2C19" stroke-width="1.66682" stroke-miterlimit="10" stroke-linecap="round"/>
<path d="M33.685 15.0689C33.4546 15.9768 33.0074 17.7351 32.5636 19.4731C32.4404 19.9362 32.2818 20.3893 32.0893 20.8282C31.2321 22.8609 31.0933 24.9716 31.0221 27.1297C30.9239 30.1042 30.558 33.0517 29.4739 35.8568C29.2507 36.4386 28.9644 36.9941 28.6201 37.5134C27.1328 39.7731 24.2159 39.8646 22.6947 37.6219C22.0827 36.6253 21.614 35.5475 21.3023 34.4203C20.8212 32.9026 20.5096 31.3306 20.0861 29.7925C19.9394 29.2905 19.7276 28.8098 19.456 28.3628C18.6225 26.9738 16.9015 26.8214 15.9969 28.1629C15.3867 29.1582 14.903 30.2257 14.5571 31.3408C13.9032 33.1939 13.3611 35.0878 12.731 36.9477C12.5657 37.3655 12.3296 37.7518 12.0331 38.0894C10.7695 39.6681 8.69609 39.7223 7.36127 38.2046C6.27682 36.9163 5.57291 35.3513 5.32855 33.6852C4.88311 31.2351 4.56871 28.7629 4.38671 26.2793C4.28537 24.4894 3.95403 22.7199 3.40085 21.0146C2.72328 19.009 2.0457 16.9728 1.77129 14.8961C1.31054 11.3151 2.9672 8.55401 5.87738 6.56872C7.52388 5.44395 9.3838 5.58285 11.2166 6.10119C12.1551 6.36545 13.0867 6.64328 14.0015 6.97529C16.2924 7.83463 18.8145 7.8502 21.116 7.01929C22.2678 6.6263 23.4469 6.28751 24.6292 6.00293C26.8822 5.44055 28.8607 6.00295 30.5919 7.54782C32.628 9.37049 33.6952 11.5997 33.685 15.0689Z" stroke="#4D2C19" stroke-width="1.36" stroke-miterlimit="10" stroke-linecap="round"/>
<path d="M37.2806 8.47162V6.01202C37.2806 4.62251 37.2806 3.92775 36.9383 3.47448C36.5959 3.0212 35.8217 2.80114 34.2735 2.36102C33.2157 2.06033 32.2832 1.69807 31.5382 1.36735C30.5224 0.916445 30.0145 0.69099 29.6553 0.69099C29.2961 0.69099 28.7882 0.916445 27.7725 1.36735C27.0274 1.69807 26.095 2.06032 25.0372 2.36102C23.4889 2.80114 22.7148 3.0212 22.3724 3.47448C22.03 3.92775 22.03 4.62251 22.03 6.01202V8.47162C22.03 13.2376 26.3195 16.0971 28.4641 17.229C28.9784 17.5004 29.2356 17.6362 29.6553 17.6362C30.075 17.6362 30.3322 17.5004 30.8466 17.229C32.9911 16.0971 37.2806 13.2376 37.2806 8.47162Z" fill="white" stroke="#4D2C19" stroke-width="1.36" stroke-linecap="round"/>
<path d="M27.1135 10.0109C27.1135 10.0109 27.9608 10.0109 28.8081 11.7054C28.8081 11.7054 31.4994 7.4691 33.8916 6.62184" stroke="#4D2C19" stroke-width="1.36" stroke-linecap="round" stroke-linejoin="round"/>
</svg>
