<svg width="26" height="26" viewBox="0 0 26 26" fill="none" xmlns="http://www.w3.org/2000/svg">
<path d="M23.5112 8.65113C23.5112 12.6798 20.0246 15.9457 15.7237 15.9457C13.6012 15.9457 11.6771 15.1504 10.2724 13.8605C8.83065 12.5366 7.93614 10.6917 7.93614 8.65113C7.93614 4.62242 11.4227 1.35651 15.7237 1.35651C20.0246 1.35651 23.5112 4.62242 23.5112 8.65113Z" fill="#FFEFE2"/>
<path d="M0.586334 23.4582C0.0565801 23.9879 0.0565801 24.8468 0.586334 25.3766C1.11609 25.9063 1.97499 25.9063 2.50474 25.3766L0.586334 23.4582ZM10.3629 15.6L9.40372 14.6408L0.586334 23.4582L1.54554 24.4174L2.50474 25.3766L11.3221 16.5592L10.3629 15.6Z" fill="#EA7D28"/>
<path d="M15.708 1.35645C20.0247 1.35658 23.5126 4.83771 23.5127 9.11821C23.5127 13.3987 20.0247 16.8798 15.708 16.88C13.7111 16.88 11.892 16.1359 10.5116 14.9102L10.2421 14.6592C8.79607 13.2484 7.90226 11.2876 7.90226 9.11821C7.90229 4.83763 11.3911 1.35645 15.708 1.35645Z" stroke="#EA7D28" stroke-width="2.71303"/>
</svg>
