<svg width="13" height="22" viewBox="0 0 13 22" fill="none" xmlns="http://www.w3.org/2000/svg">
<path opacity="0.5" d="M6.50174 6.64748L5.95683 6.83885L3.57402 0.940771L3.85312 0.84317C4.08397 0.760795 4.3287 0.72517 4.57325 0.738327C4.81779 0.751483 5.05735 0.813165 5.27819 0.91984C5.49904 1.02652 5.69682 1.17607 5.86019 1.35996C6.02356 1.54384 6.14931 1.75843 6.23023 1.9914L7.28398 4.99784C7.39653 5.32118 7.37742 5.6763 7.23081 5.98546C7.08421 6.29463 6.82205 6.53268 6.50174 6.64748Z" fill="#FF9C4F"/>
<path opacity="0.5" d="M11.1403 20.4874L10.5973 20.6788L8.21447 14.7788L8.49356 14.6793C8.72444 14.5972 8.96911 14.5618 9.21358 14.5751C9.45805 14.5883 9.69753 14.65 9.91831 14.7567C10.1391 14.8633 10.3368 15.0128 10.5003 15.1965C10.6637 15.3803 10.7895 15.5947 10.8707 15.8275L11.9282 18.8359C11.9841 18.9965 12.0081 19.1666 11.9987 19.3365C11.9893 19.5064 11.9469 19.6728 11.8737 19.8262C11.8005 19.9795 11.6981 20.1169 11.5723 20.2303C11.4464 20.3438 11.2996 20.4312 11.1403 20.4874Z" fill="#FF9C4F"/>
<path d="M5.38946 5.89928L4.84454 6.09065C4.37834 6.25624 3.99645 6.60163 3.78283 7.05092C3.56921 7.50021 3.54135 8.01663 3.70535 8.48663L5.20149 12.7561C5.28283 12.989 5.4089 13.2035 5.5725 13.3872C5.73609 13.571 5.93401 13.7205 6.15494 13.8271C6.37588 13.9337 6.6155 13.9954 6.8601 14.0087C7.1047 14.022 7.34949 13.9865 7.58049 13.9043L8.13681 13.713C8.29439 13.6569 8.46138 13.6326 8.62825 13.6416C8.79513 13.6506 8.95862 13.6926 9.10937 13.7653C9.26012 13.838 9.39519 13.9399 9.50685 14.0653C9.61852 14.1906 9.70459 14.3368 9.76015 14.4957L11.1196 18.3748C11.1752 18.533 11.1994 18.7007 11.1907 18.8683C11.1819 19.0359 11.1405 19.2001 11.0687 19.3516C10.9969 19.503 10.8962 19.6387 10.7724 19.7509C10.6485 19.863 10.5039 19.9495 10.3468 20.0053L8.48806 20.6674C8.16956 20.7822 7.82602 20.8072 7.49446 20.7398C7.1629 20.6723 6.85588 20.515 6.60649 20.2847C4.14933 18.0014 2.2831 15.1474 1.17024 11.9711C0.0573805 8.79485 -0.268369 5.39253 0.221334 2.06036C0.271529 1.72334 0.411881 1.40648 0.627312 1.14382C0.842742 0.881161 1.12511 0.682654 1.44407 0.569588L2.74084 0.10646C3.20713 -0.058846 3.71947 -0.0307596 4.16523 0.184556C4.61098 0.399871 4.95367 0.784791 5.11795 1.25469L6.1717 4.26113C6.28025 4.58303 6.25911 4.93502 6.11282 5.24137C5.96653 5.54772 5.70678 5.78398 5.38946 5.89928Z" fill="white"/>
<path d="M6.50174 6.64748L5.95683 6.83885L3.57402 0.940771L3.85312 0.84317C4.08397 0.760795 4.3287 0.72517 4.57325 0.738327C4.81779 0.751483 5.05735 0.813165 5.27819 0.91984C5.49904 1.02652 5.69682 1.17607 5.86019 1.35996C6.02356 1.54384 6.14931 1.75843 6.23023 1.9914L7.28398 4.99784C7.39653 5.32118 7.37742 5.6763 7.23081 5.98546C7.08421 6.29463 6.82205 6.53268 6.50174 6.64748Z" stroke="#4D2C19" stroke-width="0.933595" stroke-miterlimit="10"/>
<path d="M11.4627 20.7499L9.60396 21.412C9.28578 21.5269 8.94252 21.5519 8.61125 21.4845C8.27998 21.417 7.97329 21.2596 7.72429 21.0293C5.26507 18.7475 3.39729 15.8938 2.28396 12.7171C1.17063 9.54045 0.845605 6.13739 1.33724 2.80498C1.38704 2.46782 1.52723 2.15077 1.74272 1.88805C1.9582 1.62532 2.24079 1.42689 2.55997 1.31419L3.57765 0.950603L5.95855 6.85249C5.72741 6.93406 5.51453 7.0608 5.33209 7.22547C5.14965 7.39014 5.00126 7.58949 4.89543 7.81208C4.78959 8.03468 4.72839 8.27614 4.71534 8.52263C4.70229 8.76911 4.73763 9.01578 4.81936 9.24847L6.3155 13.518C6.39642 13.7509 6.52217 13.9655 6.68554 14.1494C6.84891 14.3333 7.04669 14.4828 7.26753 14.5895C7.48838 14.6962 7.72795 14.7579 7.97249 14.7711C8.21704 14.7842 8.46176 14.7486 8.69261 14.6662L9.24891 14.4748C9.40661 14.4188 9.57373 14.3946 9.74069 14.4037C9.90766 14.4128 10.0712 14.455 10.222 14.5279C10.3727 14.6008 10.5078 14.7029 10.6194 14.8284C10.731 14.9539 10.8169 15.1004 10.8723 15.2595L12.2317 19.1366C12.3385 19.4535 12.3178 19.7999 12.174 20.1015C12.0303 20.4031 11.7749 20.6359 11.4627 20.7499Z" stroke="#4D2C19" stroke-width="0.933595" stroke-miterlimit="10"/>
<path d="M8.40182 14.9855L10.8834 20.9505" stroke="#4D2C19" stroke-width="0.933595" stroke-miterlimit="10"/>
</svg>
