<svg width="20" height="22" viewBox="0 0 20 22" fill="none" xmlns="http://www.w3.org/2000/svg">
<path d="M0 0V17.7284C0 18.4594 0.291945 19.1603 0.811607 19.6772C1.33127 20.194 2.03608 20.4843 2.77099 20.4843H15.4031C16.1381 20.4843 16.8429 20.194 17.3625 19.6772C17.8822 19.1603 18.1741 18.4594 18.1741 17.7284V2.7559C18.1741 2.02499 17.8822 1.32401 17.3625 0.807176C16.8429 0.290344 16.1381 0 15.4031 0H4.25124" fill="white"/>
<path opacity="0.5" d="M11.2898 7.25087L8.77267 6.06496L6.25554 7.25087V0.926532H11.2898V7.25087Z" fill="#FFCC66"/>
<path d="M11.0071 8.17934L8.96189 7.21565C8.91294 7.19281 8.85954 7.18097 8.80547 7.18097C8.7514 7.18097 8.69799 7.19281 8.64904 7.21565L6.60387 8.17934C6.5493 8.20593 6.48882 8.21824 6.42814 8.21513C6.36746 8.21202 6.30858 8.19357 6.25705 8.16154C6.20552 8.12951 6.16305 8.08496 6.13365 8.03208C6.10425 7.97919 6.08888 7.91972 6.089 7.85929V1.95811C6.089 1.8638 6.12667 1.77334 6.19372 1.70665C6.26078 1.63996 6.35172 1.60251 6.44655 1.60251H11.1608C11.2556 1.60251 11.3466 1.63996 11.4136 1.70665C11.4807 1.77334 11.5184 1.8638 11.5184 1.95811V7.85929C11.5182 7.91924 11.5028 7.97818 11.4736 8.03062C11.4443 8.08306 11.4023 8.12731 11.3513 8.15924C11.3002 8.19118 11.2419 8.20977 11.1818 8.21328C11.1216 8.2168 11.0615 8.20512 11.0071 8.17934Z" stroke="#494949" stroke-width="0.874986" stroke-miterlimit="10"/>
<path d="M1.64106 1.59836V18.8663C1.64438 19.5813 1.93304 20.2658 2.4436 20.7693C2.95416 21.2727 3.64483 21.5539 4.36379 21.5511H16.776C17.495 21.5539 18.1857 21.2727 18.6962 20.7693C19.2068 20.2658 19.4955 19.5813 19.4988 18.8663V4.2867C19.4971 3.93272 19.4254 3.58254 19.2877 3.25614C19.15 2.92974 18.949 2.63349 18.6961 2.38435C18.4433 2.13521 18.1436 1.93804 17.8142 1.80409C17.4847 1.67014 17.132 1.60206 16.776 1.6037L10.7228 1.55391" stroke="#494949" stroke-width="0.874986" stroke-miterlimit="10" stroke-linecap="round"/>
<path d="M6.25554 13.001H15.5393" stroke="#4D2C19" stroke-width="0.874986" stroke-miterlimit="10" stroke-linecap="round"/>
<path d="M6.25554 15.1347H13.9571" stroke="#4D2C19" stroke-width="0.874986" stroke-miterlimit="10" stroke-linecap="round"/>
<path d="M6.25554 17.2679H11.8118" stroke="#4D2C19" stroke-width="0.874986" stroke-miterlimit="10" stroke-linecap="round"/>
</svg>
