<svg width="35" height="40" viewBox="0 0 35 40" fill="none" xmlns="http://www.w3.org/2000/svg">
<path d="M28.0204 10.3481C28.0176 12.6336 27.3146 14.8635 26.0061 16.7374C24.6976 18.6113 22.8463 20.0393 20.7015 20.8291C18.5567 21.6189 16.2215 21.7326 14.0101 21.1549C11.7988 20.5772 9.81752 19.3358 8.3331 17.5979C6.83259 15.2038 6.29388 12.3305 6.82525 9.55548C7.35661 6.78044 8.91868 4.30938 11.1975 2.63895C13.4763 0.968532 16.3029 0.222557 19.1092 0.550989C21.9155 0.879421 24.4935 2.2579 26.325 4.40937C27.4401 6.18889 28.0279 8.24804 28.0204 10.3481Z" fill="white"/>
<path d="M28.9813 11.6593C28.9809 14.2842 28.0569 16.8253 26.3711 18.8373C24.6853 20.8494 22.3453 22.2042 19.7611 22.6642C17.1768 23.1243 14.513 22.6604 12.2364 21.3537C9.95982 20.0471 8.2156 17.981 7.30933 15.5175C6.40305 13.054 6.39251 10.3501 7.27956 7.87963C8.1666 5.40913 9.89466 3.32952 12.161 2.00515C14.4273 0.680784 17.0874 0.196114 19.6752 0.636034C22.263 1.07595 24.6135 2.41241 26.3149 4.41128C28.0363 6.43392 28.9815 9.00327 28.9813 11.6593Z" stroke="#4D2C19" stroke-width="0.936934" stroke-miterlimit="10"/>
<path opacity="0.5" d="M24.8736 11.7034C24.1683 15.6083 20.7163 18.3932 16.9184 18.2556C13.4244 18.1314 10.3661 15.5644 9.5863 12.0149L24.8736 11.7034Z" fill="white"/>
<path d="M25.3995 12.7503C24.6942 16.6571 21.2423 19.4401 17.4443 19.3025C13.9503 19.1783 10.8921 16.6132 10.1122 13.0637L25.3995 12.7503Z" stroke="#4D2C19" stroke-width="0.936934" stroke-miterlimit="10" stroke-linecap="round"/>
<path d="M13.0924 24.0286C14.4622 26.0675 15.8321 28.1101 17.2019 30.1566L21.579 23.849H27.833C27.833 23.849 33.2652 25.3112 33.3187 33.0599V37.5957H0.84041L0.920691 30.7147C0.920691 30.7147 1.31252 24.5983 6.83261 24.0248L13.0924 24.0286Z" fill="white"/>
<path opacity="0.5" d="M26.1052 36.2732C27.8829 36.2732 29.324 34.8321 29.324 33.0544C29.324 31.2767 27.8829 29.8356 26.1052 29.8356C24.3275 29.8356 22.8864 31.2767 22.8864 33.0544C22.8864 34.8321 24.3275 36.2732 26.1052 36.2732Z" fill="white"/>
<path d="M7.23325 36.8309H4.87268V29.9824C4.87277 29.6534 4.95846 29.3301 5.12133 29.0443C5.28419 28.7584 5.51864 28.5198 5.80162 28.352L9.56705 26.1253V22.6427" stroke="#4D2C19" stroke-width="0.936934" stroke-miterlimit="10" stroke-linecap="round"/>
<path d="M11.7926 36.8307H14.1532V29.8637C14.1533 29.5707 14.077 29.2829 13.9319 29.0285C13.7867 28.774 13.5777 28.5619 13.3255 28.4129L9.4588 26.1193V22.6367" stroke="#4D2C19" stroke-width="0.936934" stroke-miterlimit="10" stroke-linecap="round"/>
<path d="M27.1777 22.4554V30.0933" stroke="#4D2C19" stroke-width="0.936934" stroke-miterlimit="10"/>
<path d="M26.8623 36.8312C28.8469 36.8312 30.4558 35.2224 30.4558 33.2378C30.4558 31.2532 28.8469 29.6444 26.8623 29.6444C24.8778 29.6444 23.2689 31.2532 23.2689 33.2378C23.2689 35.2224 24.8778 36.8312 26.8623 36.8312Z" stroke="#4D2C19" stroke-width="0.936934" stroke-miterlimit="10"/>
<path d="M34.4449 37.8401V31.328C34.4004 30.0334 34.1627 28.7526 33.7396 27.5282C32.3079 23.5277 29.3204 22.7497 28.8655 22.6427H22.126L18.6071 28.5814V39.5222" stroke="#4D2C19" stroke-width="0.936934" stroke-miterlimit="10" stroke-linecap="round"/>
<path d="M16.9521 28.5814L13.2918 22.6427H6.33622C5.96541 22.6809 2.7409 23.0938 1.20988 26.9854C0.75278 28.2015 0.505252 29.4863 0.477824 30.7852V37.8401" stroke="#4D2C19" stroke-width="0.936934" stroke-miterlimit="10" stroke-linecap="round"/>
</svg>
