<svg width="27" height="26" viewBox="0 0 27 26" fill="none" xmlns="http://www.w3.org/2000/svg">
<path d="M1.58591 11.7058C1.03363 11.7058 0.585927 12.1536 0.585927 12.7058C0.585927 13.2581 1.03363 13.7058 1.58591 13.7058V11.7058ZM24.6223 13.4129C25.0128 13.0224 25.0128 12.3892 24.6223 11.9987L18.2584 5.63488C17.8679 5.24437 17.2348 5.24437 16.8442 5.63488C16.4537 6.0254 16.4537 6.65856 16.8442 7.04907L22.501 12.7058L16.8442 18.3626C16.4537 18.7531 16.4537 19.3862 16.8442 19.7768C17.2348 20.1673 17.8679 20.1673 18.2584 19.7768L24.6223 13.4129ZM1.58591 12.7058V13.7058H23.9152V12.7058V11.7058H1.58591V12.7058Z" fill="#EA7D28"/>
</svg>
