<svg width="43" height="40" viewBox="0 0 43 40" fill="none" xmlns="http://www.w3.org/2000/svg">
<path d="M22.1004 26.6091C22.1009 28.8623 21.4101 31.0614 20.1212 32.9096C18.8324 34.7578 17.0075 36.1661 14.8929 36.9443C12.7783 37.7225 10.4759 37.8332 8.29641 37.2615C6.11693 36.6898 4.16532 35.4632 2.70504 33.7472C1.24382 31.3911 0.725217 28.5705 1.25283 25.8488C1.78044 23.1271 3.31542 20.7046 5.55117 19.0651C7.78691 17.4257 10.5588 16.6901 13.3133 17.0052C16.0677 17.3203 18.6019 18.6629 20.4097 20.7648C21.5146 22.5138 22.1008 24.5403 22.1004 26.6091Z" fill="white"/>
<path d="M5.66855 28.5967C6.46549 31.6532 9.28448 33.694 12.2566 33.4877C13.5684 33.3779 14.8147 32.867 15.8261 32.0244C16.8375 31.1818 17.5652 30.0484 17.9102 28.778" stroke="#4D2C19" stroke-width="1.55628" stroke-miterlimit="10" stroke-linecap="round"/>
<path d="M41.6971 26.2369C41.6976 28.4902 41.0068 30.6893 39.7179 32.5375C38.429 34.3857 36.6041 35.7939 34.4895 36.5721C32.375 37.3504 30.0726 37.4611 27.8931 36.8894C25.7136 36.3176 23.762 35.091 22.3017 33.3751C20.8215 31.018 20.289 28.1878 20.8112 25.4539C21.3335 22.7201 22.8717 20.2855 25.1165 18.6399C27.3612 16.9944 30.1459 16.26 32.9102 16.5847C35.6745 16.9093 38.2133 18.2688 40.0157 20.3896C41.1179 22.1405 41.7009 24.168 41.6971 26.2369Z" fill="white"/>
<path d="M25.2665 28.2153C26.0603 31.2749 28.8824 33.3157 31.8514 33.1094C33.1588 32.9981 34.4007 32.4892 35.4103 31.6512C36.4198 30.8131 37.1487 29.686 37.4988 28.4215" stroke="#4D2C19" stroke-width="1.55628" stroke-miterlimit="10" stroke-linecap="round"/>
<path d="M32.9898 11.9328C32.9895 14.1853 32.2984 16.3836 31.0097 18.231C29.721 20.0784 27.8966 21.4861 25.7828 22.2641C23.6689 23.0422 21.3673 23.1532 19.1883 22.5822C17.0094 22.0112 15.058 20.7857 13.5975 19.0709C12.1297 16.7138 11.6067 13.8891 12.1333 11.1627C12.6599 8.43637 14.1973 6.00966 16.4373 4.36874C18.6774 2.72783 21.4547 1.99389 24.213 2.31398C26.9713 2.63407 29.5068 3.98454 31.3115 6.09485C32.4109 7.84336 32.9927 9.86743 32.9898 11.9328Z" fill="white"/>
<path d="M32.3112 11.792C32.3104 14.3764 31.4002 16.878 29.7402 18.8587C28.0802 20.8394 25.7762 22.1728 23.2318 22.6254C20.6874 23.0781 18.0649 22.621 15.8237 21.3343C13.5824 20.0475 11.8654 18.0133 10.9734 15.5878C10.0813 13.1623 10.0712 10.5002 10.9447 8.06802C11.8182 5.63579 13.5196 3.58847 15.751 2.28469C17.9823 0.980912 20.6013 0.503824 23.149 0.937002C25.6968 1.37018 28.0109 2.68601 29.686 4.65397C31.3814 6.64582 32.3121 9.17633 32.3112 11.792Z" stroke="#4D2C19" stroke-width="1.55628" stroke-miterlimit="10"/>
<path d="M15.1841 12.1671C15.981 15.2268 18.8032 17.2675 21.7722 17.0613C23.083 16.9475 24.3273 16.4344 25.3372 15.591C26.3471 14.7477 27.0739 13.6148 27.4195 12.3453" stroke="#4D2C19" stroke-width="1.55628" stroke-miterlimit="10" stroke-linecap="round"/>
<path d="M22.7957 28.2121C22.7956 30.7966 21.886 33.2986 20.2264 35.2798C18.5668 37.261 16.263 38.5951 13.7186 39.0482C11.1742 39.5014 8.55141 39.0448 6.30983 37.7584C4.06825 36.472 2.35079 34.4379 1.45836 32.0124C0.56593 29.587 0.555438 26.9248 1.42872 24.4923C2.30201 22.0599 4.00338 20.0123 6.23475 18.7083C8.46612 17.4043 11.0852 16.927 13.6331 17.3601C16.181 17.7933 18.4953 19.1091 20.1705 21.0771C21.8649 23.0683 22.7955 25.5975 22.7957 28.2121Z" stroke="#4D2C19" stroke-width="1.55628" stroke-miterlimit="10"/>
<path d="M42.0782 27.8399C42.0774 30.4243 41.1672 32.9259 39.5072 34.9066C37.8472 36.8873 35.5432 38.2207 32.9988 38.6733C30.4544 39.126 27.8319 38.6689 25.5907 37.3822C23.3494 36.0954 21.6324 34.0612 20.7404 31.6357C19.8483 29.2102 19.8382 26.5482 20.7117 24.116C21.5852 21.6837 23.2866 19.6364 25.518 18.3326C27.7493 17.0288 30.3683 16.5517 32.916 16.9849C35.4638 17.4181 37.7779 18.7339 39.453 20.7019C41.1482 22.6939 42.0788 25.2243 42.0782 27.8399Z" stroke="#4D2C19" stroke-width="1.55628" stroke-miterlimit="10"/>
</svg>
