<svg width="174" height="69" viewBox="0 0 174 69" fill="none" xmlns="http://www.w3.org/2000/svg">
<g clip-path="url(#clip0_4_2783)">
<path d="M122.648 68.4778V57.7852H124.821V66.6614H130.224V68.4778H122.648Z" fill="white"/>
<path d="M115.716 68.4782H113.352L112.412 66.0293H108.111L107.223 68.4782H104.918L109.109 57.6973H111.407L115.716 68.4782ZM111.715 64.2129L110.232 60.2123L108.779 64.2129H111.715Z" fill="white"/>
<path d="M94.6538 68.4782V59.521H91.4609V57.6973H100.012V59.521H96.8267V68.4782H94.6538Z" fill="white"/>
<path d="M75.6719 68.4782V57.6973H77.786L82.1904 64.8968V57.6973H84.2095V68.4782H82.0294L77.691 61.4478V68.4782H75.6719Z" fill="white"/>
<path d="M59.9023 68.4782V57.6973H67.8816V59.521H62.0752V61.9111H67.4779V63.7275H62.0752V66.6617H68.0872V68.4782H59.9023Z" fill="white"/>
<path d="M43.3203 57.6973H47.2915C48.1871 57.6973 48.8698 57.7659 49.3396 57.9032C49.9709 58.0895 50.5117 58.4204 50.9619 58.896C51.4121 59.3715 51.7547 59.9549 51.9896 60.6462C52.2245 61.3325 52.3419 62.1807 52.3419 63.1907C52.3419 64.0781 52.2318 64.8429 52.0116 65.4851C51.7424 66.2695 51.3583 66.9045 50.8591 67.3898C50.4823 67.7575 49.9734 68.0443 49.3322 68.2502C48.8527 68.4022 48.2115 68.4782 47.409 68.4782H43.3203V57.6973ZM45.4931 59.521V66.6617H47.1153C47.7222 66.6617 48.1602 66.6275 48.4293 66.5588C48.7817 66.4706 49.0728 66.321 49.3029 66.1102C49.5378 65.8994 49.7287 65.5537 49.8755 65.0733C50.0223 64.588 50.0957 63.9285 50.0957 63.0951C50.0957 62.2616 50.0223 61.6218 49.8755 61.1757C49.7287 60.7296 49.5231 60.3814 49.2588 60.1314C48.9945 59.8814 48.6594 59.7122 48.2532 59.624C47.9497 59.5553 47.3552 59.521 46.4694 59.521H45.4931Z" fill="white"/>
<path d="M5.17763 13.9352C7.30654 12.3509 10.1548 11.7804 12.8763 11.7485C15.4967 11.7485 18.2181 12.1772 20.448 13.4689C21.7858 14.2596 22.9544 15.4644 23.1433 16.9328C23.3028 18.1116 23.1237 19.5046 22.0202 20.3011C20.8743 21.0657 19.3672 21.1874 17.9772 21.1961C17.9577 19.5944 17.8209 17.9089 16.9323 16.4781C16.3463 15.5252 15.2656 14.8128 14.0482 14.668C12.3847 14.4565 10.5683 14.7346 9.22061 15.6701C7.71994 16.7822 6.97126 18.4736 6.50902 20.1158C5.77008 22.8382 5.67893 25.6592 5.70172 28.4482C5.75055 30.661 5.97842 32.9026 6.78572 35.0111C7.33583 36.4245 8.21801 37.8031 9.62756 38.6662C11.4309 39.7957 13.7552 40.01 15.8939 39.7899C18.5729 39.509 21.0371 37.9942 22.2741 35.8626C23.2897 36.743 23.472 38.1651 23.0066 39.3149C22.528 40.5458 21.4245 41.4958 20.1875 42.1475C18.2572 43.1496 16.0012 43.5464 13.7845 43.5811C11.3593 43.6361 8.87885 43.2248 6.74991 42.1619C4.55262 41.0527 2.91524 39.2107 1.91588 37.1688C0.424982 34.1828 0.0506323 30.8695 0.0669085 27.6344C0.089695 24.8338 0.337091 21.9925 1.33645 19.3193C2.08189 17.2804 3.29285 15.3138 5.18414 13.941L5.17763 13.9352Z" fill="#F58420"/>
<path d="M29.7999 2.4691C29.777 1.66105 29.7608 0.853009 29.8063 0.0478516C33.4685 0.0826061 37.1307 0.0362655 40.796 0.0739164C40.7798 12.2063 40.796 24.3386 40.7895 36.4738C40.7831 37.6062 40.7798 38.8342 41.5122 39.8161C42.0363 40.5604 42.9998 40.9659 43.9536 41.0759C44.7251 41.1773 45.5064 41.1947 46.2844 41.1657C46.3365 41.9709 46.2974 42.7789 46.3039 43.584C40.8188 43.5812 35.3305 43.5957 29.8454 43.5754L29.7901 43.5291C29.7641 42.747 29.7901 41.9593 29.7836 41.1744C31.154 41.1599 32.6742 41.241 33.8461 40.4938C34.9887 39.7321 35.3077 38.3767 35.3012 37.1747C35.3012 26.8612 35.3012 16.5477 35.3012 6.23711C35.3142 5.10178 34.9691 3.83613 33.8852 3.13234C32.7035 2.38801 31.1735 2.472 29.7966 2.4691H29.7999Z" fill="#F58420"/>
<path d="M62.5708 11.793C65.0253 11.6396 67.5675 11.8625 69.8235 12.7836C71.7082 13.5337 73.3035 14.7964 74.4425 16.3228C75.7446 18.0489 76.5095 20.0502 76.959 22.0776C77.5093 24.6291 77.5803 27.2445 77.4273 29.8337C77.2584 32.3187 76.7995 34.8297 75.6765 37.1264C74.8173 38.8931 73.4725 40.4947 71.6919 41.6069C69.8235 42.7915 67.548 43.3852 65.2759 43.5329C62.7921 43.7038 60.2237 43.4634 57.9483 42.5192C55.9464 41.7111 54.2797 40.3181 53.1306 38.6614C51.9522 36.973 51.2458 35.0556 50.8259 33.1151C50.3473 30.8532 50.2465 28.5449 50.3246 26.2482C50.4288 23.8472 50.7641 21.4288 51.6625 19.1495C52.4242 17.2322 53.6482 15.4105 55.4516 14.1274C57.4438 12.659 60.0187 11.9494 62.574 11.793H62.5708ZM62.8507 14.8138C61.4867 14.9325 60.1489 15.4191 59.156 16.2735C57.6847 17.5189 56.9913 19.2943 56.5649 21.0204C55.9073 23.9196 55.8715 26.8998 55.9887 29.8423C56.1352 32.1913 56.3923 34.598 57.4568 36.7789C58.1599 38.2444 59.3937 39.5882 61.1026 40.1732C62.7237 40.7207 64.5532 40.7467 66.2199 40.3354C67.9842 39.8981 69.3645 38.6441 70.1327 37.1959C71.3664 34.9137 71.6268 32.3418 71.7831 29.8453C71.9036 26.8738 71.8612 23.8675 71.1874 20.9451C70.7317 19.1205 69.9504 17.2293 68.2772 16.01C66.7798 14.9094 64.7355 14.643 62.854 14.8138H62.8507Z" fill="#F58420"/>
<path d="M125.016 12.7971C127.116 11.8848 129.512 11.6357 131.826 11.7921C134.343 11.9543 136.852 12.8116 138.656 14.4103C140.602 16.1075 141.68 18.4332 142.223 20.7733C142.8 23.1656 142.718 25.6245 142.705 28.0574C136.246 28.0515 129.792 28.0747 123.336 28.0457C123.291 29.3549 123.441 30.6669 123.633 31.9644C123.974 33.9367 124.577 35.9525 125.964 37.5657C126.871 38.6373 128.193 39.4164 129.661 39.7321C132.37 40.32 135.361 39.8653 137.659 38.4491C138.717 37.8061 139.665 36.9893 140.299 35.993C140.804 36.1755 141.087 36.6418 141.279 37.0704C141.712 38.226 141.152 39.4685 140.355 40.3895C138.948 41.9651 136.781 42.8282 134.629 43.2886C131.595 43.8244 128.32 43.7057 125.488 42.524C123.314 41.6407 121.536 40.0912 120.341 38.2666C118.493 35.4486 117.812 32.1468 117.691 28.9204C117.627 26.5948 117.754 24.2517 118.242 21.9607C118.636 20.1506 119.268 18.3608 120.325 16.7649C121.432 15.0938 123.04 13.6544 125.016 12.8057V12.7971ZM126.722 16.0495C125.592 16.959 124.915 18.2159 124.446 19.4845C123.805 21.2569 123.538 23.1193 123.421 24.9728C127.891 24.9728 132.36 24.9931 136.826 24.9613C136.8 23.0469 136.667 21.1151 136.09 19.2615C135.671 17.9437 134.996 16.6114 133.75 15.7483C132.695 14.9779 131.269 14.755 129.938 14.8476C128.756 14.9171 127.591 15.3313 126.718 16.0495H126.722Z" fill="#F58420"/>
<path d="M80.9505 12.8545C85.8008 12.8573 90.651 12.8545 95.502 12.8545C95.5143 13.6538 95.489 14.4503 95.518 15.2497C94.4435 15.2844 93.2719 15.2265 92.341 15.7941C91.4978 16.2865 91.2405 17.251 91.2702 18.0967C91.2898 19.2262 91.8038 20.2833 92.1648 21.352C93.2168 24.2193 94.2579 27.0866 95.3099 29.9539C95.9936 31.7842 96.612 33.6321 97.1681 35.4943C97.5719 36.8498 97.9953 38.2081 98.2461 39.5954C98.2846 39.5839 98.3694 39.5664 98.4085 39.5549C99.3039 36.6991 100.512 33.9304 101.559 31.121C102.835 27.7209 104.108 24.3178 105.384 20.9204C105.824 19.8344 106.175 18.6759 106.02 17.5145C105.931 16.8513 105.58 16.1764 104.923 15.8173C103.988 15.2815 102.842 15.2902 101.778 15.2439C101.817 14.4474 101.781 13.6509 101.797 12.8545C105.961 12.8631 110.121 12.8545 114.281 12.8574C114.268 13.6625 114.304 14.4705 114.261 15.2757C113.354 15.267 112.351 15.2236 111.567 15.6986C110.811 16.1909 110.388 16.9642 110.014 17.7056C109.232 19.3218 108.662 21.0132 108.002 22.6698C106.413 26.7969 104.818 30.9241 103.23 35.0512C102.116 37.8953 101.061 40.7568 99.9158 43.5893C98.1577 43.5662 96.4003 43.5806 94.6393 43.5835C91.4522 35.0946 88.3405 26.5798 85.1729 18.0851C84.8148 17.2365 84.3979 16.3328 83.5388 15.7884C82.7899 15.3105 81.8263 15.2786 80.9411 15.2641C80.9281 14.4619 80.9215 13.6567 80.9476 12.8545H80.9505Z" fill="#F58420"/>
<path d="M161.448 9.52759C162.779 9.53049 164.111 9.53049 165.442 9.52759C168.079 12.3804 170.283 15.5779 171.741 19.0447C172.829 21.715 173.301 24.5649 173.317 27.4003C173.349 29.8911 172.991 32.3847 172.2 34.777C170.891 38.8173 168.395 42.4752 165.433 45.7219C164.105 45.7132 162.773 45.7132 161.445 45.7219C164.225 42.3767 166.071 38.461 167.008 34.3918C168.265 28.999 168.001 23.3224 166.204 18.0513C165.176 14.9986 163.57 12.0966 161.445 9.52759H161.448Z" fill="white"/>
<path d="M150.922 16.5518C153.005 16.5518 155.088 16.5518 157.172 16.5518C157.172 18.4198 157.172 20.285 157.172 22.1531C155.085 22.1531 153.002 22.1531 150.918 22.1531C150.918 20.2879 150.918 18.4198 150.918 16.5547L150.922 16.5518Z" fill="white"/>
<path d="M150.842 32.6328C152.926 32.6328 155.009 32.6414 157.092 32.6299C157.092 34.498 157.092 36.3661 157.092 38.2341C155.009 38.2341 152.926 38.2341 150.842 38.2341C150.839 36.3661 150.839 34.5009 150.842 32.6328Z" fill="white"/>
</g>
<defs>
<clipPath id="clip0_4_2783">
<rect width="174" height="69" fill="white"/>
</clipPath>
</defs>
</svg>
