<svg width="38" height="54" viewBox="0 0 38 54" fill="none" xmlns="http://www.w3.org/2000/svg">
<path d="M14.6628 37.5615C14.6628 38.0443 14.2698 38.4373 13.787 38.4373C13.3041 38.4373 12.9111 38.0443 12.9111 37.5615C12.9111 37.0787 13.3041 36.6857 13.787 36.6857C14.2698 36.6969 14.6628 37.0787 14.6628 37.5615ZM23.8701 36.6969C23.3873 36.6969 22.9943 37.0899 22.9943 37.5727C22.9943 38.0556 23.3873 38.4486 23.8701 38.4486C24.353 38.4486 24.7459 38.0556 24.7459 37.5727C24.7459 37.0787 24.353 36.6969 23.8701 36.6969ZM37.8384 34.6758C37.8047 34.8442 37.6699 34.979 37.5015 35.0351C36.9625 35.1923 36.7492 35.5067 36.6706 35.7088C36.6706 35.7088 36.6706 35.7088 36.6706 35.72V53.4386C36.6706 53.7081 36.4572 53.9214 36.1878 53.9214H30.9216C30.8542 53.9663 30.7644 54 30.6746 54H7.15094C7.06111 54 6.97128 53.9775 6.90391 53.9214H1.66021C1.39073 53.9214 1.17739 53.7081 1.17739 53.4386V35.72C1.09879 35.5179 0.896677 35.2035 0.346482 35.0463C0.178055 35.0014 0.0545414 34.8667 0.00962748 34.687C-0.0240579 34.5186 0.0320848 34.3389 0.155598 34.2267C0.166826 34.2154 0.21174 34.1817 0.267883 34.1368V30.9479C0.267883 30.8806 0.27911 30.8132 0.312796 30.7571C0.35771 30.656 0.458766 30.5325 0.64965 30.3978V27.512C0.64965 27.4447 0.660879 27.3773 0.694565 27.3211C0.717022 27.2762 0.739477 27.2313 0.784391 27.1864C0.896676 26.8608 1.16616 26.3892 1.78373 25.9513V21.5609L1.46933 21.123C1.41319 21.0444 1.3795 20.9434 1.3795 20.8535V16.8338C1.3795 16.7327 1.41319 16.6316 1.48056 16.5418C1.51424 16.4969 1.60407 16.3958 1.78373 16.2723V12.7129L1.46933 12.275C1.35704 12.1178 1.35704 11.9269 1.44687 11.7697C1.44687 11.7473 1.43564 11.736 1.43564 11.7136V8.5696C1.43564 8.45732 1.48056 8.35626 1.55916 8.27766C1.60407 8.22152 1.7725 8.08678 2.14304 7.94081V4.99895C2.14304 4.83052 2.13181 3.20239 3.93959 2.3378C4.04065 2.13569 4.2989 1.56303 4.55716 0.339131C4.60207 0.12579 4.79296 -0.0089519 5.0063 0.00227657C5.21964 0.0247335 5.38806 0.204389 5.38806 0.41773C5.39929 1.00161 5.53404 2.07954 5.8372 2.43885C5.87089 2.47254 5.9944 2.53991 6.09546 2.58483C6.58951 2.82062 7.39796 3.22485 7.25199 4.80806V8.22152C7.35305 8.30012 7.42042 8.36749 7.44288 8.40117C7.49902 8.47977 7.5327 8.5696 7.5327 8.65943V9.61385C7.65622 9.29945 7.83587 8.76048 8.02676 7.90712C8.07167 7.69378 8.27378 7.55904 8.47589 7.57027C8.68924 7.59272 8.85766 7.77238 8.85766 7.98572C8.86889 8.5696 9.00363 9.64753 9.3068 10.0068C9.34049 10.0405 9.464 10.1079 9.56506 10.1528C10.0591 10.3886 10.8676 10.7928 10.7216 12.3761V15.3965C11.137 15.5762 11.2942 15.7558 11.3504 15.8232C11.4065 15.9018 11.4402 15.9916 11.4402 16.0814V19.1805C11.4402 19.2254 11.429 19.2703 11.4178 19.3152C11.429 19.4275 11.3953 19.5398 11.3392 19.6296L10.9125 20.2472V22.1673H26.7222V20.0339L26.2955 19.4163C26.2281 19.3265 26.2057 19.2142 26.2169 19.1019C26.2057 19.057 26.1944 19.0121 26.1944 18.9672V15.8681C26.1944 15.7783 26.2281 15.6885 26.2843 15.6099C26.3292 15.5425 26.5088 15.3628 26.913 15.1832V12.1627C26.7671 10.5795 27.5755 10.1865 28.0696 9.93947C28.1706 9.89456 28.2941 9.82719 28.3278 9.7935C28.6422 9.42296 28.7657 8.35626 28.777 7.77238C28.777 7.55904 28.9454 7.37938 29.1587 7.35693C29.3721 7.33447 29.563 7.48044 29.6079 7.69378C29.8774 8.98505 30.1581 9.5577 30.2479 9.72613C30.2591 9.73736 30.2816 9.74859 30.2928 9.75982V8.65943C30.2928 8.5696 30.3265 8.47977 30.3826 8.40117C30.4051 8.36749 30.4725 8.30012 30.5735 8.22152V4.80806C30.4276 3.22485 31.236 2.83185 31.7301 2.58483C31.8311 2.53991 31.9546 2.47254 31.9883 2.43885C32.3027 2.06832 32.4262 1.00161 32.4375 0.41773C32.4375 0.204389 32.6059 0.0247335 32.8192 0.00227657C33.0326 -0.0201804 33.2234 0.12579 33.2684 0.339131C33.5266 1.55181 33.7849 2.12446 33.8859 2.3378C35.6937 3.20239 35.6937 4.83052 35.6825 4.99895V7.94081C36.053 8.08678 36.2215 8.23275 36.2664 8.27766C36.345 8.35626 36.3899 8.45732 36.3899 8.5696V11.7136C36.3899 11.736 36.3899 11.7473 36.3787 11.7697C36.4685 11.9269 36.4572 12.1178 36.3562 12.275L36.0418 12.7129V16.2723C36.2215 16.3958 36.3113 16.4969 36.345 16.5418C36.4123 16.6204 36.446 16.7215 36.446 16.8338V20.8535C36.446 20.9434 36.4236 21.0444 36.3562 21.123L36.0418 21.5609V25.9513C36.6706 26.3892 36.9288 26.8608 37.0411 27.1864C37.0748 27.2313 37.1085 27.2762 37.131 27.3211C37.1534 27.3773 37.1759 27.4447 37.1759 27.512V30.3978C37.3668 30.5213 37.4678 30.656 37.5127 30.7571C37.5352 30.8132 37.5576 30.8806 37.5576 30.9479V34.1368C37.6138 34.1817 37.6475 34.2042 37.6699 34.2154C37.8159 34.3277 37.8833 34.5074 37.8384 34.6758ZM36.6257 33.6877V31.1613C36.4236 31.049 35.8172 30.8132 34.2565 30.7458C33.594 30.7121 32.9764 30.7458 32.4038 30.8357C31.5729 30.9592 30.9328 31.1613 30.596 31.3971V33.7438C31.1911 33.5529 32.0781 33.4294 33.2684 33.3733C34.8516 33.2835 35.9295 33.4743 36.6257 33.6877ZM36.3225 34.5972C35.7386 34.4175 34.7842 34.2379 33.3133 34.3165C32.1567 34.3726 31.4718 34.4849 31.0676 34.5972C31.236 34.7656 31.3708 34.979 31.4381 35.2372H35.8509C35.9407 35.0351 36.0867 34.8105 36.3225 34.5972ZM14.1575 45.9267V53.0568H23.668V46.185C23.668 46.0727 23.7578 44.0965 22.1859 43.2656C21.2651 42.7828 19.4798 41.7834 18.8398 41.4241C18.4243 41.6824 17.4587 42.2326 15.7744 42.9961C13.8319 43.8719 14.135 45.7695 14.1463 45.8594C14.1575 45.8706 14.1575 45.9043 14.1575 45.9267ZM24.5775 53.0568H24.8358V44.5905C24.8358 44.5344 24.9593 41.9855 22.9831 40.9413C21.8378 40.3349 19.5921 39.0774 18.851 38.6619C18.3794 38.9538 17.2004 39.65 15.067 40.6044C12.6192 41.7048 13.0122 44.0965 13.0234 44.1975C13.0234 44.22 13.0347 44.2537 13.0347 44.2761V53.0568H13.248V45.9716C13.0908 45.0397 13.3491 43.0972 15.4039 42.1652C17.6383 41.1546 18.5591 40.5258 18.5703 40.5146C18.7163 40.4135 18.8959 40.4023 19.0531 40.4921C19.0756 40.5034 21.5009 41.862 22.6238 42.4571C24.7123 43.5687 24.5888 46.0952 24.5775 46.2074V53.0568ZM25.7453 53.0568H26.3516V35.5853H11.7209V53.0568H12.1364V44.3098C12.0802 43.9056 11.8108 41.0873 14.7077 39.7848C17.4362 38.5496 18.5703 37.7749 18.5815 37.7636C18.7275 37.6626 18.9071 37.6513 19.0643 37.7412C19.098 37.7524 22.0511 39.4142 23.4098 40.1441C25.9025 41.469 25.7565 44.4895 25.7453 44.6242V53.0568ZM6.42109 35.2372C6.48846 34.979 6.6232 34.7656 6.79162 34.5972C6.3874 34.4961 5.70246 34.3839 4.54593 34.3165C3.075 34.2379 2.12058 34.4175 1.5367 34.5972C1.7725 34.7993 1.91847 35.0351 2.01952 35.2372H6.42109ZM2.74937 21.3925V26.1871C2.74937 26.2994 2.70446 26.4004 2.63709 26.4902C2.92903 26.4566 3.25466 26.4229 3.63642 26.4116C4.27645 26.3892 4.89401 26.4116 5.46667 26.5015C5.72492 26.5464 5.96072 26.5913 6.18529 26.6362C6.17406 26.6025 6.17406 26.5576 6.17406 26.5239V21.3813C6.17406 21.2578 6.21897 21.1343 6.3088 21.0444L6.37617 20.9658C6.05055 20.8423 5.50035 20.6964 4.62453 20.6402C3.58028 20.5841 2.9178 20.7749 2.55849 20.9434L2.67077 21.1006C2.71569 21.1904 2.74937 21.2915 2.74937 21.3925ZM2.34515 17.0134V20.0114C2.85043 19.8205 3.60274 19.6521 4.66944 19.7082C5.57895 19.7644 6.20775 19.9104 6.64566 20.0676V17.1145C6.45477 16.9573 5.85966 16.5643 4.36628 16.598C3.14237 16.598 2.56972 16.8787 2.34515 17.0134ZM6.466 11.1409C6.52214 11.1521 6.57828 11.1634 6.63443 11.1746C6.65688 11.1072 6.67934 11.0511 6.7018 10.9837V8.82785C6.48846 8.69311 5.85966 8.4124 4.36628 8.4124C3.13114 8.42363 2.53603 8.63697 2.28901 8.76048V11.1746C2.79429 10.9725 3.56905 10.7816 4.66944 10.849C5.46666 10.8827 6.05055 11.0062 6.466 11.1409ZM7.12848 16.2723C7.39796 16.4632 7.51025 16.6316 7.54393 16.6766C7.58885 16.7552 7.6113 16.8338 7.6113 16.9236V18.3833C7.89201 18.3608 8.18395 18.3608 8.47589 18.3833C8.81275 18.4057 9.10469 18.4282 9.36294 18.4619C9.7784 18.4843 10.1939 18.5405 10.6093 18.6191V16.2611C10.5082 16.205 10.3398 16.1151 10.0367 16.0253H9.89068V15.9916C9.52014 15.9018 9.00363 15.8456 8.27378 15.8456C7.8471 15.8456 7.46533 15.8793 7.11725 15.9355L7.12848 16.2723ZM28.3054 18.2373C28.5636 18.2036 28.8556 18.1812 29.1924 18.1587C29.563 18.1363 29.9223 18.1475 30.2591 18.1812V16.9236C30.2591 16.8338 30.2816 16.7552 30.3265 16.6766C30.349 16.6316 30.4612 16.4632 30.742 16.2723V15.7446C30.3602 15.666 29.9111 15.6323 29.3945 15.6211C28.6647 15.6211 28.1482 15.6772 27.7776 15.7671V15.8007H27.6429C27.3397 15.8793 27.1601 15.9692 27.059 16.0365V18.3945C27.4632 18.3159 27.8899 18.2598 28.3054 18.2373ZM31.382 11.1409C31.8087 11.0062 32.3925 10.8827 33.1898 10.8378C34.2902 10.7704 35.0649 10.9613 35.5702 11.1634V8.74926C35.3344 8.63697 34.7393 8.4124 33.4929 8.40117C32.0445 8.38995 31.382 8.67066 31.1574 8.81663V11.1746C31.236 11.1634 31.3034 11.1521 31.382 11.1409ZM33.4929 16.5867C32.0332 16.553 31.4157 16.946 31.2136 17.1145V20.0676C31.6515 19.9104 32.2803 19.7644 33.1898 19.7082C34.2452 19.6521 35.0088 19.8205 35.5141 20.0114V17.0134C35.3007 16.8787 34.7281 16.598 33.4929 16.5867ZM35.1098 26.1871V21.3925C35.1098 21.2915 35.1435 21.2016 35.1997 21.123L35.3007 20.9771C34.9302 20.8086 34.2677 20.6178 33.2347 20.6739C32.3589 20.7188 31.8087 20.8648 31.483 20.9995L31.5504 21.0781C31.6402 21.1679 31.6851 21.2915 31.6851 21.415V26.5239C31.6851 26.5576 31.6851 26.6025 31.6739 26.6362C31.8985 26.5801 32.1343 26.5352 32.3925 26.5015C32.9652 26.4116 33.5715 26.3892 34.2228 26.4116C34.6046 26.4229 34.9302 26.4566 35.2221 26.4902C35.1547 26.4116 35.1098 26.2994 35.1098 26.1871ZM7.8471 27.6917V28.0622H30.0121V27.6917C30.0121 27.6805 30.0121 27.6692 30.0121 27.658H7.8471C7.8471 27.6692 7.8471 27.6805 7.8471 27.6917ZM30.7307 25.4685H7.12848V26.3218C7.22953 26.4229 7.35305 26.5576 7.46533 26.726H30.3826H30.4051C30.5174 26.5576 30.6521 26.4229 30.742 26.3218V25.4685H30.7307ZM30.7307 23.0656H7.12848V24.5365H30.742V23.0656H30.7307ZM7.8471 30.6223C7.93693 30.6897 8.01553 30.7571 8.0829 30.8244C8.17273 30.9143 8.21764 31.0378 8.21764 31.1613V32.9803H8.81275V31.9361C8.75661 31.5543 8.83521 30.8918 9.45277 30.6335L9.91314 30.4427C10.0367 30.3865 10.1714 30.3978 10.2949 30.4539L10.6654 30.6335C10.9349 30.7234 11.3728 31.0265 11.3504 31.6666C11.3392 31.981 11.3392 32.5985 11.3392 32.9915H11.7771V31.9473C11.7209 31.5655 11.7995 30.903 12.4171 30.6448L12.8775 30.4539C13.001 30.3978 13.1357 30.409 13.2592 30.4651L13.6298 30.6448C13.8992 30.7346 14.3372 31.0378 14.3147 31.6778C14.3035 31.9922 14.3035 32.6098 14.3035 33.0028H14.7526V31.9585C14.6965 31.5767 14.7751 30.9143 15.3926 30.656L15.853 30.4651C15.9765 30.409 16.1113 30.4202 16.2348 30.4764L16.6053 30.656C16.8748 30.7458 17.3127 31.049 17.2902 31.689C17.279 32.0034 17.279 32.621 17.279 33.014H17.6608V31.9697C17.6046 31.588 17.6832 30.9255 18.3008 30.6672L18.7612 30.4764C18.8847 30.4202 19.0194 30.4314 19.1429 30.4876L19.5135 30.6672C19.783 30.7571 20.2209 31.0602 20.1984 31.7003C20.1872 32.0147 20.1872 32.6322 20.1872 33.0252H20.67V31.981C20.6139 31.5992 20.6925 30.9367 21.31 30.6785L21.7704 30.4876C21.8939 30.4427 22.0287 30.4427 22.1522 30.4988L22.5227 30.6785C22.7922 30.7683 23.2301 31.0715 23.2077 31.7115C23.1964 32.0259 23.1964 32.6434 23.1964 33.0364H23.6119V31.9922C23.5557 31.6104 23.6343 30.9479 24.2519 30.6897L24.7123 30.4988C24.8358 30.4427 24.9705 30.4539 25.094 30.51L25.4646 30.6897C25.7341 30.7795 26.172 31.0827 26.1495 31.7227C26.1383 32.0371 26.1383 32.6547 26.1383 33.0477H26.5537V32.0034C26.4976 31.6217 26.5762 30.9592 27.1938 30.7009L27.6541 30.51C27.7776 30.4539 27.9124 30.4651 28.0359 30.5213L28.4064 30.7009C28.6759 30.7907 29.1138 31.0939 29.0914 31.7339C29.0801 32.0483 29.0801 32.6659 29.0801 33.0589H29.6865V31.2399C29.6865 31.1164 29.7314 30.9929 29.8212 30.903C29.8886 30.8357 29.9672 30.7683 30.057 30.7009V29.0503H7.8471V30.6223ZM27.4408 31.8911V32.7782L28.1033 32.8231C28.1033 32.4301 28.1033 31.9024 28.1145 31.6217C28.1145 31.5318 28.092 31.5206 28.0696 31.5094C28.0359 31.4981 28.0247 31.4981 28.0022 31.4869L27.7889 31.3859L27.5194 31.4981C27.4296 31.5318 27.4408 31.7676 27.452 31.8238C27.4408 31.8462 27.4408 31.8687 27.4408 31.8911ZM24.5102 31.8911V32.7782L25.1614 32.8231C25.1614 32.4301 25.1614 31.9024 25.1726 31.6217C25.1726 31.5318 25.1502 31.5206 25.1277 31.5094C25.094 31.4981 25.0828 31.4981 25.0603 31.4869L24.847 31.3859L24.5775 31.4981C24.4877 31.5318 24.4989 31.7676 24.5102 31.8238C24.5102 31.8462 24.5102 31.8687 24.5102 31.8911ZM21.5795 31.8911V32.7782L22.2308 32.8231C22.2308 32.4301 22.2308 31.9024 22.242 31.6217C22.242 31.5318 22.2195 31.5206 22.1971 31.5094C22.1634 31.4981 22.1522 31.4981 22.1297 31.4869L21.9164 31.3859L21.6469 31.4981C21.5571 31.5318 21.5683 31.7676 21.5795 31.8238C21.5795 31.8462 21.5795 31.8687 21.5795 31.8911ZM18.5815 31.8911V32.7782L19.2328 32.8231C19.2328 32.4301 19.2328 31.9024 19.244 31.6217C19.244 31.5318 19.2215 31.5206 19.1991 31.5094C19.1654 31.4981 19.1542 31.4981 19.1317 31.4869L18.9184 31.3859L18.6489 31.4981C18.5591 31.5318 18.5703 31.7676 18.5815 31.8238C18.5703 31.8462 18.5815 31.8687 18.5815 31.8911ZM15.6733 31.8911V32.7782L16.3358 32.8231C16.3358 32.4301 16.3358 31.9024 16.3471 31.6217C16.3471 31.5318 16.3246 31.5206 16.3021 31.5094C16.2685 31.4981 16.2572 31.4981 16.2348 31.4869L16.0214 31.3859L15.7519 31.4981C15.6621 31.5318 15.6733 31.7676 15.6846 31.8238C15.6733 31.8462 15.6733 31.8687 15.6733 31.8911ZM12.709 31.8911V32.7782L13.3603 32.8231C13.3603 32.4301 13.3603 31.9024 13.3715 31.6217C13.3715 31.5318 13.3491 31.5206 13.3266 31.5094C13.2929 31.4981 13.2817 31.4981 13.2592 31.4869L13.0459 31.3859L12.7764 31.4981C12.6866 31.5318 12.6978 31.7676 12.709 31.8238C12.6978 31.8462 12.709 31.8687 12.709 31.8911ZM9.75594 31.8911V32.7782L10.4184 32.8231C10.4184 32.4301 10.4184 31.9024 10.4296 31.6217C10.4296 31.5318 10.4072 31.5206 10.3847 31.5094C10.351 31.4981 10.3398 31.4981 10.3174 31.4869L10.104 31.3859L9.83454 31.4981C9.74471 31.5318 9.75594 31.7676 9.76717 31.8238C9.74471 31.8462 9.75594 31.8687 9.75594 31.8911ZM8.19518 34.6533H29.664C29.6528 34.6309 29.6528 34.5972 29.6528 34.5747H29.6303V33.9123H8.22887V34.5747H8.20641C8.20641 34.5972 8.20641 34.6309 8.19518 34.6533ZM10.7553 39.2346H7.6113V42.3561H10.7553V39.2346ZM10.7553 35.5853H7.6113V38.3026H10.7553V35.5853ZM7.62253 46.7464H10.7665V43.288H7.62253V46.7464ZM27.306 46.7464H30.2254V43.288H27.306V46.7464ZM30.2142 42.3561V39.2346H27.2948V42.3561H30.2142ZM30.2142 38.3026V35.5853H27.2948V38.3026H30.2142ZM36.2439 30.016V27.7254C36.053 27.6243 35.5028 27.4334 34.1891 27.3773C33.6052 27.3548 33.055 27.3773 32.5497 27.4559C31.8311 27.5682 31.2809 27.7366 30.9778 27.9275V30.1844C31.3483 30.0609 31.775 29.9711 32.269 29.8925C32.8978 29.7914 33.5828 29.7577 34.3126 29.7914C35.1435 29.8139 35.7723 29.9037 36.2439 30.016ZM35.1098 15.8232V12.522C35.1098 12.421 35.1435 12.3311 35.1997 12.2525L35.3007 12.1066C35.166 12.0504 35.0088 11.9831 34.7954 11.9269C34.1891 11.8595 33.4031 11.8146 32.5834 11.8595C32.0669 11.9269 31.7188 12.028 31.4718 12.129L31.5392 12.2076C31.629 12.2975 31.6739 12.421 31.6739 12.5445V15.8569C32.1231 15.7334 32.7182 15.6323 33.4817 15.6435C34.1779 15.6323 34.7056 15.7109 35.1098 15.8232ZM31.4494 4.0333C31.8199 3.89856 32.3476 3.77504 33.0887 3.75259C33.1224 3.75259 33.1673 3.75259 33.201 3.75259C33.7849 3.75259 34.2452 3.86487 34.6046 3.99961C34.4024 3.65153 34.0544 3.28099 33.448 3.01151C33.3806 2.97782 33.3133 2.93291 33.2684 2.86554C33.2459 2.83185 33.1449 2.67465 32.9877 2.31534C32.8978 2.56237 32.7855 2.78694 32.6396 2.95537C32.4936 3.12379 32.2915 3.22485 32.1006 3.31468C31.8087 3.46065 31.5392 3.59539 31.4494 4.0333ZM31.4381 7.79484C31.9097 7.66009 32.5722 7.54781 33.5042 7.55904C34.0544 7.55904 34.5035 7.60395 34.874 7.67132V5.11123C34.6719 4.9428 34.133 4.57226 33.1112 4.59472C32.1567 4.61718 31.6515 4.84175 31.4381 4.96526V7.79484ZM27.7889 11.3879C28.1594 11.2532 28.6871 11.1297 29.4282 11.1072C29.7089 11.1072 29.9784 11.1634 30.2367 11.2532C30.1132 10.8378 29.9447 10.4784 29.7314 10.3325C29.6865 10.2988 29.6416 10.2651 29.6191 10.2202C29.5967 10.1865 29.4956 10.0293 29.3384 9.66999C29.2486 9.91702 29.1363 10.1416 28.9903 10.31C28.8443 10.4784 28.6422 10.5795 28.4513 10.6693C28.1482 10.8153 27.8787 10.95 27.7889 11.3879ZM27.7664 14.9137C28.1706 14.8351 28.6647 14.7902 29.2935 14.7902C29.3272 14.7902 29.3609 14.7902 29.3833 14.7902C29.8774 14.7902 30.3265 14.8351 30.7195 14.8912V12.7129L30.5062 12.4883H30.4276C30.4276 12.4547 30.4276 12.4322 30.4163 12.3985L30.3602 12.3424C30.3153 12.2975 30.2816 12.2413 30.2591 12.1852C29.9784 12.0392 29.6753 11.9381 29.417 11.9494C28.4626 11.9718 27.9573 12.1964 27.744 12.3199V14.9137H27.7664ZM27.699 19.843V22.1224H30.742V21.5834L30.3826 21.2129C30.2704 21.1006 30.2254 20.9321 30.2591 20.7862V19.1468C29.9447 19.1131 29.6079 19.1019 29.2486 19.1244C28.384 19.1693 27.8113 19.2703 27.4632 19.3602L27.6204 19.5847C27.6654 19.6521 27.699 19.7532 27.699 19.843ZM9.96928 22.1336V20.0676C9.96928 19.9665 10.003 19.8767 10.0479 19.7981L10.2051 19.5735C9.857 19.4837 9.28434 19.3938 8.41975 19.3377C8.13904 19.3265 7.85833 19.3265 7.60007 19.3489V20.7974C7.63376 20.9434 7.58885 21.1118 7.47656 21.2241L7.11725 21.5946V22.1448L9.96928 22.1336ZM9.89068 15.127V12.5445C9.68857 12.421 9.18329 12.1964 8.21764 12.1739C8.20641 12.1739 8.20641 12.1739 8.19518 12.1739C7.95938 12.1739 7.70113 12.2525 7.4541 12.3761L7.21831 12.6231C7.21831 12.6568 7.21831 12.6904 7.20708 12.7241H7.11725L7.10602 12.7354V15.0933C7.4541 15.0484 7.83587 15.026 8.25132 15.0147C8.93626 14.9923 9.47523 15.0372 9.89068 15.127ZM7.54393 11.1297V11.4216C7.7685 11.3543 8.0043 11.3206 8.2401 11.3206C8.96995 11.343 9.49769 11.4553 9.87945 11.6013C9.78963 11.1634 9.52014 11.0286 9.21697 10.8827C9.02609 10.7928 8.82398 10.6918 8.67801 10.5234C8.53204 10.3549 8.41975 10.1304 8.32993 9.88333C8.18396 10.2539 8.07167 10.4111 8.04921 10.4335C8.01553 10.4784 7.98184 10.5121 7.93693 10.5458C7.79096 10.6469 7.65622 10.8602 7.54393 11.1297ZM3.25466 3.99961C3.63642 3.85364 4.1417 3.74136 4.7705 3.75259C5.50035 3.77504 6.02809 3.88733 6.40986 4.0333C6.32003 3.59539 6.05055 3.46065 5.74738 3.31468C5.55649 3.22485 5.35438 3.12379 5.20841 2.95537C5.06244 2.78694 4.95015 2.56237 4.86033 2.31534C4.71436 2.68588 4.60207 2.84308 4.57962 2.86554C4.5347 2.93291 4.47856 2.97782 4.39996 3.01151C3.80485 3.26976 3.45677 3.65153 3.25466 3.99961ZM2.9964 7.67132C3.35571 7.60395 3.80485 7.57027 4.36628 7.55904C5.29824 7.54781 5.96072 7.64887 6.43231 7.78361V4.96526C6.2302 4.84175 5.72492 4.61718 4.75927 4.59472C3.74871 4.56104 3.19851 4.93158 2.9964 5.11123V7.67132ZM2.74937 12.522V15.8232C3.1536 15.7109 3.68134 15.6323 4.36628 15.6323C5.12981 15.6323 5.72492 15.7221 6.17406 15.8456V12.5332C6.17406 12.421 6.21897 12.3087 6.29757 12.2189L6.26389 12.1852C6.28634 12.1627 6.32003 12.1403 6.34248 12.1178C6.10669 12.028 5.7586 11.9381 5.27578 11.8708C4.4561 11.8259 3.67011 11.8708 3.06377 11.9381C2.86166 11.9943 2.69323 12.0504 2.55849 12.1178L2.65955 12.2638C2.71569 12.3311 2.74937 12.4322 2.74937 12.522ZM1.6153 30.016C2.0869 29.9037 2.71569 29.8139 3.55783 29.7802C4.27645 29.7465 4.96138 29.7802 5.60141 29.8812C6.09546 29.9598 6.52214 30.0497 6.89268 30.1732V27.9163C6.58951 27.7254 6.03932 27.5569 5.3207 27.4447C4.81541 27.3661 4.26522 27.3436 3.68134 27.3661C2.36761 27.4222 1.81741 27.6243 1.62653 27.7141L1.6153 30.016ZM1.23353 33.6877C1.9297 33.4631 3.00763 33.2835 4.59084 33.3621C5.78106 33.4182 6.66811 33.5417 7.26322 33.7326V31.3859C6.92637 31.1501 6.27512 30.9592 5.45544 30.8244C4.88278 30.7346 4.26522 30.7009 3.60274 30.7346C2.05321 30.802 1.44687 31.0378 1.23353 31.1501V33.6877ZM2.14304 52.9558H6.69057V36.1916H2.14304V52.9558ZM7.62253 53.0568H10.7665V47.6896H7.62253V53.0568ZM30.2142 53.0568V47.6896H27.2948V53.0568H30.2142ZM35.7162 36.1916H31.1462V52.9445H35.7162V36.1916Z" fill="#4D2C19"/>
</svg>
