<svg width="54" height="52" viewBox="0 0 54 52" fill="none" xmlns="http://www.w3.org/2000/svg">
<mask id="path-1-inside-1_4_2682" fill="white">
<path d="M53.1562 49.4467H48.1284V37.131L48.8081 37.3137C49.2527 37.4336 49.72 37.172 49.8422 36.718C49.9633 36.2681 49.6964 35.805 49.2465 35.6839L48.1284 35.3834V25.7742L48.8081 25.9568C48.8815 25.9766 48.9556 25.9857 49.0281 25.9857C49.4006 25.9857 49.7409 25.7377 49.8422 25.3611C49.9633 24.9104 49.6964 24.4482 49.2465 24.327C38.5667 21.4688 39.1493 21.5881 38.9386 21.5881C38.7172 21.5881 35.603 21.5881 35.6896 21.5881V16.3921H37.228C37.6944 16.3921 38.0717 16.0148 38.0717 15.5484C38.0717 15.082 37.6944 14.7046 37.228 14.7046H36.7227C37.5331 12.7 37.1198 10.405 35.4968 8.7193C33.122 6.25003 28.48 5.178 27.5949 2.49726V0.84375C27.5949 0.377384 27.2175 0 26.7512 0C26.2848 0 25.9074 0.377384 25.9074 0.84375V2.49335C24.9818 5.19584 20.38 6.25822 17.9939 8.7193C16.3734 10.4026 15.9641 12.6981 16.778 14.7047H16.2685C15.8022 14.7047 15.4248 15.082 15.4248 15.5484C15.4248 16.0148 15.8022 16.3922 16.2685 16.3922H17.8077V21.5881H14.7541C14.5989 21.5881 15.271 21.423 4.25417 24.3262C3.80346 24.4449 3.53484 24.9063 3.6535 25.357C3.77215 25.8077 4.23935 26.0755 4.68429 25.9577L5.36901 25.7772V35.3892L4.25418 35.683C3.80346 35.8017 3.53485 36.2631 3.65351 36.7138C3.77216 37.1645 4.23935 37.4315 4.6843 37.3145L5.36902 37.1341V49.4467H0.84375C0.377384 49.4467 0 49.8241 0 50.2905C0 50.7568 0.377384 51.1342 0.84375 51.1342H53.1562C53.6226 51.1342 54 50.7568 54 50.2905C54 49.8241 53.6226 49.4467 53.1562 49.4467ZM13.9103 25.3669L7.05652 27.1732V25.3463L13.9103 23.5286V25.3669ZM32.327 26.8607V32.9442H29.729V28.7279C29.729 28.2615 29.3516 27.8841 28.8853 27.8841H24.6121C24.1458 27.8841 23.7684 28.2615 23.7684 28.7279V32.9442H21.1704V26.8607H32.327ZM37.8995 26.8607V32.9442H34.0145V26.8607H37.8995ZM46.4409 27.1592L39.587 25.3174V23.5286L46.4409 25.3463V27.1592ZM31.5788 49.4451H21.9185V40.2231H31.5788V49.4451ZM32.4226 38.5356H21.0748C20.6084 38.5356 20.231 38.913 20.231 39.3794V49.4451H15.5978V34.6317H37.8995V49.4451H33.2663V39.3794C33.2663 38.913 32.8889 38.5356 32.4226 38.5356ZM25.4559 32.9417V29.5716H28.0415V32.9417H25.4559ZM19.4829 32.9442H15.5978V26.8607H19.4829V32.9442ZM46.4409 49.4451H43.8577V43.5042C43.8577 43.0378 43.4803 42.6605 43.014 42.6605C42.5476 42.6605 42.1702 43.0378 42.1702 43.5042V49.4451H39.587V34.8358L46.4409 36.6776L46.4409 49.4451ZM43.8577 34.2359V30.6148C43.8577 30.1484 43.4803 29.771 43.0139 29.771C42.5476 29.771 42.1702 30.1484 42.1702 30.6148V33.7824L39.587 33.0883V27.0649L46.4409 28.9069V34.9299L43.8577 34.2359ZM37.8995 25.1732H15.5978V23.2756C22.7444 23.2756 31.0935 23.2756 37.8995 23.2756V25.1732ZM19.2077 9.89181C21.2123 7.82496 24.7937 7.02447 26.747 4.43958C28.6702 6.99331 32.329 7.85958 34.2806 9.88934C35.6171 11.2769 35.8289 13.1679 34.8591 14.7046H34.8459H18.6515H18.6432C17.6693 13.1655 17.877 11.2744 19.2077 9.89181ZM19.4952 16.3921H34.0021V21.5881H31.7593V18.551C31.7593 18.0846 31.3819 17.7072 30.9155 17.7072C30.4492 17.7072 30.0718 18.0846 30.0718 18.551V21.5881H27.5924V18.551C27.5924 18.0846 27.2151 17.7072 26.7487 17.7072C26.2823 17.7072 25.9049 18.0846 25.9049 18.551V21.5881H23.4256V18.551C23.4256 18.0846 23.0482 17.7072 22.5818 17.7072C22.1155 17.7072 21.7381 18.0846 21.7381 18.551V21.5881H19.4952V16.3921ZM7.05652 28.9182L13.9103 27.112V33.1379L11.3272 33.8188V30.6148C11.3272 30.1484 10.9498 29.771 10.4834 29.771C10.0171 29.771 9.63968 30.1484 9.63968 30.6148V34.2635L7.05653 34.9444L7.05652 28.9182ZM13.9103 34.883V49.4451H11.3272V43.5042C11.3272 43.0378 10.9498 42.6605 10.4834 42.6605C10.0171 42.6605 9.63968 43.0378 9.63968 43.5042V49.4451H7.05652V36.6893L13.9103 34.883Z"/>
</mask>
<path d="M53.1562 49.4467H48.1284V37.131L48.8081 37.3137C49.2527 37.4336 49.72 37.172 49.8422 36.718C49.9633 36.2681 49.6964 35.805 49.2465 35.6839L48.1284 35.3834V25.7742L48.8081 25.9568C48.8815 25.9766 48.9556 25.9857 49.0281 25.9857C49.4006 25.9857 49.7409 25.7377 49.8422 25.3611C49.9633 24.9104 49.6964 24.4482 49.2465 24.327C38.5667 21.4688 39.1493 21.5881 38.9386 21.5881C38.7172 21.5881 35.603 21.5881 35.6896 21.5881V16.3921H37.228C37.6944 16.3921 38.0717 16.0148 38.0717 15.5484C38.0717 15.082 37.6944 14.7046 37.228 14.7046H36.7227C37.5331 12.7 37.1198 10.405 35.4968 8.7193C33.122 6.25003 28.48 5.178 27.5949 2.49726V0.84375C27.5949 0.377384 27.2175 0 26.7512 0C26.2848 0 25.9074 0.377384 25.9074 0.84375V2.49335C24.9818 5.19584 20.38 6.25822 17.9939 8.7193C16.3734 10.4026 15.9641 12.6981 16.778 14.7047H16.2685C15.8022 14.7047 15.4248 15.082 15.4248 15.5484C15.4248 16.0148 15.8022 16.3922 16.2685 16.3922H17.8077V21.5881H14.7541C14.5989 21.5881 15.271 21.423 4.25417 24.3262C3.80346 24.4449 3.53484 24.9063 3.6535 25.357C3.77215 25.8077 4.23935 26.0755 4.68429 25.9577L5.36901 25.7772V35.3892L4.25418 35.683C3.80346 35.8017 3.53485 36.2631 3.65351 36.7138C3.77216 37.1645 4.23935 37.4315 4.6843 37.3145L5.36902 37.1341V49.4467H0.84375C0.377384 49.4467 0 49.8241 0 50.2905C0 50.7568 0.377384 51.1342 0.84375 51.1342H53.1562C53.6226 51.1342 54 50.7568 54 50.2905C54 49.8241 53.6226 49.4467 53.1562 49.4467ZM13.9103 25.3669L7.05652 27.1732V25.3463L13.9103 23.5286V25.3669ZM32.327 26.8607V32.9442H29.729V28.7279C29.729 28.2615 29.3516 27.8841 28.8853 27.8841H24.6121C24.1458 27.8841 23.7684 28.2615 23.7684 28.7279V32.9442H21.1704V26.8607H32.327ZM37.8995 26.8607V32.9442H34.0145V26.8607H37.8995ZM46.4409 27.1592L39.587 25.3174V23.5286L46.4409 25.3463V27.1592ZM31.5788 49.4451H21.9185V40.2231H31.5788V49.4451ZM32.4226 38.5356H21.0748C20.6084 38.5356 20.231 38.913 20.231 39.3794V49.4451H15.5978V34.6317H37.8995V49.4451H33.2663V39.3794C33.2663 38.913 32.8889 38.5356 32.4226 38.5356ZM25.4559 32.9417V29.5716H28.0415V32.9417H25.4559ZM19.4829 32.9442H15.5978V26.8607H19.4829V32.9442ZM46.4409 49.4451H43.8577V43.5042C43.8577 43.0378 43.4803 42.6605 43.014 42.6605C42.5476 42.6605 42.1702 43.0378 42.1702 43.5042V49.4451H39.587V34.8358L46.4409 36.6776L46.4409 49.4451ZM43.8577 34.2359V30.6148C43.8577 30.1484 43.4803 29.771 43.0139 29.771C42.5476 29.771 42.1702 30.1484 42.1702 30.6148V33.7824L39.587 33.0883V27.0649L46.4409 28.9069V34.9299L43.8577 34.2359ZM37.8995 25.1732H15.5978V23.2756C22.7444 23.2756 31.0935 23.2756 37.8995 23.2756V25.1732ZM19.2077 9.89181C21.2123 7.82496 24.7937 7.02447 26.747 4.43958C28.6702 6.99331 32.329 7.85958 34.2806 9.88934C35.6171 11.2769 35.8289 13.1679 34.8591 14.7046H34.8459H18.6515H18.6432C17.6693 13.1655 17.877 11.2744 19.2077 9.89181ZM19.4952 16.3921H34.0021V21.5881H31.7593V18.551C31.7593 18.0846 31.3819 17.7072 30.9155 17.7072C30.4492 17.7072 30.0718 18.0846 30.0718 18.551V21.5881H27.5924V18.551C27.5924 18.0846 27.2151 17.7072 26.7487 17.7072C26.2823 17.7072 25.9049 18.0846 25.9049 18.551V21.5881H23.4256V18.551C23.4256 18.0846 23.0482 17.7072 22.5818 17.7072C22.1155 17.7072 21.7381 18.0846 21.7381 18.551V21.5881H19.4952V16.3921ZM7.05652 28.9182L13.9103 27.112V33.1379L11.3272 33.8188V30.6148C11.3272 30.1484 10.9498 29.771 10.4834 29.771C10.0171 29.771 9.63968 30.1484 9.63968 30.6148V34.2635L7.05653 34.9444L7.05652 28.9182ZM13.9103 34.883V49.4451H11.3272V43.5042C11.3272 43.0378 10.9498 42.6605 10.4834 42.6605C10.0171 42.6605 9.63968 43.0378 9.63968 43.5042V49.4451H7.05652V36.6893L13.9103 34.883Z" fill="#4D2C19" stroke="white" stroke-width="0.4" mask="url(#path-1-inside-1_4_2682)"/>
</svg>
