<svg width="59" height="66" viewBox="0 0 59 66" fill="none" xmlns="http://www.w3.org/2000/svg">
<path d="M58.3051 22.654H55.9491V22.541H29.6261V33.4333H46.1555C43.744 39.774 37.2641 44.3256 29.6261 44.3256C19.9348 44.3256 12.0773 37.0101 12.0773 27.9872C12.0773 18.9643 19.9348 11.6487 29.6261 11.6487C34.0995 11.6487 38.1694 13.2199 41.2682 15.7864L49.5409 8.08421C44.3173 3.55165 37.33 0.75641 29.6261 0.75641C13.4739 0.75641 0.378205 12.949 0.378205 27.9872C0.378205 43.0254 13.4739 55.2179 29.6261 55.2179C45.7782 55.2179 58.8739 43.0254 58.8739 27.9872C58.8739 26.1614 58.6721 24.3791 58.3051 22.654Z" fill="#FFC107"/>
<path d="M3.75053 15.3126L13.3599 21.8739C15.9601 15.8804 22.2571 11.6487 29.6261 11.6487C34.0996 11.6487 38.1694 13.2199 41.2682 15.7864L49.541 8.08421C44.3173 3.55165 37.33 0.75641 29.6261 0.75641C18.392 0.75641 8.64955 6.6614 3.75053 15.3126Z" fill="#FF3D00"/>
<path d="M29.6269 55.2182C37.1816 55.2182 44.0461 52.5264 49.2361 48.1491L40.1839 41.0173C37.2474 43.0882 33.5973 44.3259 29.6269 44.3259C22.0195 44.3259 15.5602 39.8097 13.1267 33.5071L3.58901 40.3488C8.42953 49.1675 18.2597 55.2182 29.6269 55.2182Z" fill="#4CAF50"/>
<path d="M58.3051 22.6539H55.9491V22.5409H29.6261V33.4332H46.1555C44.9973 36.4789 42.8929 39.1053 40.1787 41.0183L40.1831 41.0156L49.2353 48.1473C48.5948 48.6892 58.8739 41.6024 58.8739 27.987C58.8739 26.1612 58.6721 24.379 58.3051 22.6539Z" fill="#1976D2"/>
</svg>
