<svg width="29" height="40" viewBox="0 0 29 40" fill="none" xmlns="http://www.w3.org/2000/svg">
<path opacity="0.5" d="M21.1819 14.1993H6.25383C5.89299 14.1993 5.60047 14.492 5.60047 14.8531V16.4863C5.60047 16.8474 5.89299 17.1401 6.25383 17.1401H21.1819C21.5428 17.1401 21.8353 16.8474 21.8353 16.4863V14.8531C21.8353 14.492 21.5428 14.1993 21.1819 14.1993Z" fill="white"/>
<path opacity="0.5" d="M20.6303 14.1993H6.93998C6.57913 14.1993 6.2866 14.492 6.2866 14.8531V16.4863C6.2866 16.8474 6.57913 17.1401 6.93998 17.1401H20.6303C20.9911 17.1401 21.2836 16.8474 21.2836 16.4863V14.8531C21.2836 14.492 20.9911 14.1993 20.6303 14.1993Z" fill="#FFE5B3"/>
<path opacity="0.5" d="M17.5675 35.3042C17.524 35.423 17.4696 35.5375 17.4049 35.6462C17.2395 35.9239 17.031 36.1734 16.7873 36.3856L15.2049 37.8202C14.8068 38.1817 14.2884 38.382 13.7507 38.382C13.2131 38.382 12.6947 38.1817 12.2965 37.8202C11.905 37.467 11.5154 37.1121 11.1276 36.7553C10.7159 36.4223 10.3643 36.021 10.0883 35.569C9.74435 34.8819 9.61835 34.1061 9.72716 33.3454C9.83743 32.2254 9.85948 28.2527 9.83467 22.3903C9.83467 21.8854 9.83467 21.364 9.83467 20.8316C9.83467 19.6812 9.83467 18.4673 9.80986 17.1982H17.744C17.744 17.7923 17.744 18.3735 17.744 18.9418C17.744 19.1652 17.744 19.3859 17.744 19.6039C17.7191 27.6044 17.7247 32.9785 17.7908 33.6241C17.8416 34.1937 17.7653 34.7676 17.5675 35.3042Z" fill="#FFE5B3"/>
<path d="M19.2574 31.6239L11.384 35.6158" stroke="#4D2C19" stroke-width="1.36426" stroke-miterlimit="10"/>
<path d="M22.2928 14.4752H8.45082C7.79003 14.4752 7.25436 15.0113 7.25436 15.6726V16.2188C7.25436 16.8801 7.79003 17.4161 8.45082 17.4161H22.2928C22.9535 17.4161 23.4892 16.8801 23.4892 16.2188V15.6726C23.4892 15.0113 22.9535 14.4752 22.2928 14.4752Z" stroke="#4D2C19" stroke-width="1.36426" stroke-miterlimit="10"/>
<path opacity="0.5" d="M25.7558 14.1581H1.25052C-0.127882 7.87362 -0.817089 3.74096 1.60614 1.70221C3.32639 0.253852 6.31753 0.12144 8.41822 0.84976C11.1364 1.79051 11.5086 3.85133 13.5293 3.83202C15.5501 3.81271 15.7348 1.82913 18.6377 0.84976C20.3524 0.270415 22.9438 0.138004 24.6007 1.27462C27.5146 3.2775 26.773 8.69298 25.7558 14.1581Z" fill="white"/>
<path d="M27.4095 14.4339H2.90427C1.52587 8.14935 0.836662 4.01669 3.2599 1.97795C4.98014 0.529583 7.97129 0.397171 10.072 1.12549C12.7902 2.06624 13.1624 4.12706 15.1831 4.10775C17.2038 4.08844 17.3885 2.10486 20.2915 1.12549C22.0062 0.546145 24.5976 0.413734 26.2544 1.55035C29.1684 3.55323 28.4268 8.96871 27.4095 14.4339Z" stroke="#4D2C19" stroke-width="1.36426" stroke-miterlimit="10"/>
<path d="M13.2644 3.30235C15.3474 4.85191 17.9143 5.60708 20.5038 5.43212" stroke="#4D2C19" stroke-width="1.36426" stroke-miterlimit="10" stroke-linecap="round"/>
<path d="M19.2229 35.5799C19.1794 35.6988 19.1249 35.8133 19.0602 35.922C18.8948 36.1996 18.6864 36.4492 18.4427 36.6614L16.513 38.4077C16.2089 38.683 15.8134 38.8354 15.4033 38.8354C14.9933 38.8354 14.5978 38.683 14.2937 38.4077C13.7892 37.947 13.282 37.489 12.7802 37.0283C12.3685 36.6953 12.0169 36.2941 11.7409 35.842C11.397 35.1549 11.271 34.3791 11.3798 33.6184C11.49 32.4984 11.5121 28.5257 11.4873 22.6633C11.4873 22.1585 11.4873 21.637 11.4873 21.1046C11.4873 19.9542 11.4735 18.7403 11.4625 17.4713H19.3966C19.3966 18.0653 19.3966 18.6465 19.3966 19.2148C19.3966 19.4383 19.3966 19.659 19.3966 19.8769C19.3718 27.8774 19.3773 33.2515 19.4434 33.8971C19.4955 34.4675 19.4202 35.0423 19.2229 35.5799Z" stroke="#4D2C19" stroke-width="1.36426" stroke-miterlimit="10"/>
<path d="M19.2574 20.5087L11.384 24.5035" stroke="#4D2C19" stroke-width="1.36426" stroke-miterlimit="10"/>
<path d="M15.8696 17.3194L11.2623 19.8809" stroke="#4D2C19" stroke-width="1.36426" stroke-miterlimit="10"/>
<path d="M19.2574 26.4072L11.384 30.3992" stroke="#4D2C19" stroke-width="1.36426" stroke-miterlimit="10"/>
</svg>
