<svg width="54" height="54" viewBox="0 0 54 54" fill="none" xmlns="http://www.w3.org/2000/svg">
<path d="M53.4127 14.6742H51.0649V9.39161C51.0649 9.23594 51.003 9.08664 50.893 8.97657C50.7829 8.86649 50.6336 8.80466 50.4779 8.80466H47.2086V4.98946C47.2086 4.98946 47.2086 4.98946 47.2086 4.95425C47.2031 4.90022 47.1913 4.84703 47.1734 4.79577C47.1758 4.77432 47.1758 4.75266 47.1734 4.7312C47.1734 4.69012 47.1205 4.64903 47.0912 4.60795L47.0501 4.56686L42.1021 0.164714C42.0454 0.109946 41.9782 0.0671663 41.9046 0.0389297C41.831 0.0106931 41.7524 -0.00242192 41.6736 0.000367434H12.326C12.1833 0.000572739 12.0456 0.0527367 11.9386 0.147106L6.9906 4.54925L6.94952 4.59034L6.86734 4.7136C6.86492 4.73505 6.86492 4.75671 6.86734 4.77816C6.84943 4.82942 6.83761 4.88261 6.83213 4.93664C6.83213 4.93664 6.83213 4.93664 6.83213 4.97186V8.80466H3.52172C3.36605 8.80466 3.21675 8.86649 3.10668 8.97657C2.9966 9.08664 2.93476 9.23594 2.93476 9.39161V14.6742H0.586953C0.431283 14.6742 0.281989 14.736 0.171915 14.8461C0.0618396 14.9562 0 15.1055 0 15.2611V18.1959C0 18.3516 0.0618396 18.5009 0.171915 18.6109C0.281989 18.721 0.431283 18.7828 0.586953 18.7828H2.93476V37.1486H1.21499C1.05932 37.1486 0.910028 37.2104 0.799954 37.3205C0.689879 37.4306 0.628039 37.5799 0.628039 37.7355V42.5133C0.628039 42.669 0.689879 42.8183 0.799954 42.9284C0.910028 43.0385 1.05932 43.1003 1.21499 43.1003H2.93476V53.413C2.93476 53.5687 2.9966 53.718 3.10668 53.8281C3.21675 53.9382 3.36605 54 3.52172 54H50.4779C50.6336 54 50.7829 53.9382 50.893 53.8281C51.003 53.718 51.0649 53.5687 51.0649 53.413V43.1003H52.7905C52.9462 43.1003 53.0955 43.0385 53.2055 42.9284C53.3156 42.8183 53.3775 42.669 53.3775 42.5133V37.7355C53.3775 37.5799 53.3156 37.4306 53.2055 37.3205C53.0955 37.2104 52.9462 37.1486 52.7905 37.1486H51.0649V18.7828H53.4127C53.5683 18.7828 53.7176 18.721 53.8277 18.6109C53.9378 18.5009 53.9996 18.3516 53.9996 18.1959V15.2611C53.9996 15.1055 53.9378 14.9562 53.8277 14.8461C53.7176 14.736 53.5683 14.6742 53.4127 14.6742ZM12.549 1.17427H41.4506L45.078 4.40251H8.92168L12.549 1.17427ZM7.96495 5.57642H46.0347V8.80466H7.96495V5.57642ZM4.10867 9.97856H49.891V14.6742H4.10867V9.97856ZM6.7793 52.8261H4.10867V43.1003H6.79104L6.7793 52.8261ZM13.8521 52.8261H7.98255V43.1003H13.8638L13.8521 52.8261ZM17.6086 52.8261H15.0377V43.1003H17.6086V52.8261ZM1.80194 41.9264V38.3225H20.0386V41.9264H1.80194ZM46.6216 26.2019H39.5489C39.3932 26.2019 39.2439 26.2638 39.1338 26.3738C39.0237 26.4839 38.9619 26.6332 38.9619 26.7889V37.1486H36.3911V30.3106C36.3911 27.8199 35.4016 25.4312 33.6404 23.67C31.8792 21.9088 29.4905 20.9194 26.9998 20.9194C24.5091 20.9194 22.1204 21.9088 20.3592 23.67C18.598 25.4312 17.6086 27.8199 17.6086 30.3106V37.1486H15.0377V26.7889C15.0377 26.6332 14.9759 26.4839 14.8658 26.3738C14.7557 26.2638 14.6064 26.2019 14.4508 26.2019H7.40734C7.25167 26.2019 7.10238 26.2638 6.9923 26.3738C6.88223 26.4839 6.82039 26.6332 6.82039 26.7889V37.1486H4.10867V18.7828H49.891V37.1486H47.2086V26.7889C47.2086 26.6332 47.1468 26.4839 47.0367 26.3738C46.9266 26.2638 46.7773 26.2019 46.6216 26.2019ZM46.0347 27.3758V37.1486H40.1358V27.3758H46.0347ZM13.8638 27.3758V37.1486H7.99429V27.3758H13.8638ZM35.2172 52.8261H18.7825V43.1003H20.6255C20.7812 43.1003 20.9305 43.0385 21.0406 42.9284C21.1506 42.8183 21.2125 42.669 21.2125 42.5133V37.7355C21.2125 37.5799 21.1506 37.4306 21.0406 37.3205C20.9305 37.2104 20.7812 37.1486 20.6255 37.1486H18.7825V30.3106C18.7825 28.1312 19.6482 26.0411 21.1893 24.5001C22.7303 22.959 24.8204 22.0933 26.9998 22.0933C29.1792 22.0933 31.2693 22.959 32.8103 24.5001C34.3514 26.0411 35.2171 28.1312 35.2172 30.3106V37.1486H33.38C33.2243 37.1486 33.075 37.2104 32.965 37.3205C32.8549 37.4306 32.793 37.5799 32.793 37.7355V42.5133C32.793 42.669 32.8549 42.8183 32.965 42.9284C33.075 43.0385 33.2243 43.1003 33.38 43.1003H35.2172V52.8261ZM38.9619 52.8261H36.3911V43.1003H38.9619V52.8261ZM46.0347 52.8261H40.1358V43.1003H46.0347V52.8261ZM49.891 52.8261H47.2086V43.1003H49.891V52.8261ZM52.2036 38.3225V41.9264H33.9669V38.3225H52.2036ZM52.8257 17.6089H1.17391V15.8481H52.8257V17.6089Z" fill="#4D2C19"/>
<path d="M10.9242 20.0272C10.4317 20.0261 9.94998 20.171 9.53995 20.4438C9.12992 20.7165 8.81002 21.1048 8.62076 21.5594C8.4315 22.0141 8.38137 22.5147 8.47674 22.9978C8.5721 23.4809 8.80866 23.9249 9.15647 24.2736C9.50429 24.6222 9.94771 24.8598 10.4306 24.9563C10.9135 25.0528 11.4142 25.0039 11.8693 24.8157C12.3244 24.6275 12.7134 24.3085 12.9872 23.8991C13.2609 23.4897 13.407 23.0084 13.407 22.5159C13.4078 22.1894 13.3441 21.8659 13.2197 21.564C13.0953 21.2621 12.9125 20.9877 12.6819 20.7565C12.4512 20.5253 12.1773 20.3419 11.8757 20.2168C11.5741 20.0916 11.2507 20.0272 10.9242 20.0272ZM10.9242 23.8248C10.6636 23.826 10.4086 23.7497 10.1915 23.6057C9.97442 23.4616 9.80499 23.2564 9.70475 23.0159C9.60452 22.7754 9.57798 22.5106 9.62853 22.255C9.67907 21.9994 9.80441 21.7646 9.98864 21.5804C10.1729 21.3961 10.4077 21.2708 10.6633 21.2202C10.9188 21.1697 11.1837 21.1962 11.4242 21.2965C11.6647 21.3967 11.8699 21.5661 12.014 21.7832C12.158 22.0004 12.2342 22.2554 12.2331 22.5159C12.2331 22.6878 12.1992 22.858 12.1334 23.0168C12.0677 23.1756 11.9713 23.3199 11.8497 23.4414C11.7282 23.563 11.5839 23.6594 11.4251 23.7252C11.2663 23.7909 11.0961 23.8248 10.9242 23.8248Z" fill="#4D2C19"/>
<path d="M43.0841 20.0272C42.5917 20.0261 42.1099 20.171 41.6999 20.4438C41.2899 20.7165 40.97 21.1048 40.7807 21.5594C40.5914 22.0141 40.5413 22.5147 40.6367 22.9978C40.732 23.4809 40.9686 23.9249 41.3164 24.2736C41.6642 24.6222 42.1077 24.8598 42.5906 24.9563C43.0735 25.0528 43.5742 25.0039 44.0293 24.8157C44.4844 24.6275 44.8734 24.3085 45.1471 23.8991C45.4208 23.4897 45.5669 23.0084 45.5669 22.5159C45.5669 21.8569 45.3055 21.2248 44.8401 20.7582C44.3746 20.2917 43.7431 20.0288 43.0841 20.0272ZM43.0841 23.8248C42.8236 23.826 42.5686 23.7497 42.3515 23.6057C42.1344 23.4616 41.9649 23.2564 41.8647 23.0159C41.7645 22.7754 41.7379 22.5106 41.7885 22.255C41.839 21.9994 41.9644 21.7646 42.1486 21.5804C42.3328 21.3961 42.5676 21.2708 42.8232 21.2202C43.0788 21.1697 43.3436 21.1962 43.5841 21.2965C43.8246 21.3967 44.0299 21.5661 44.1739 21.7832C44.3179 22.0004 44.3942 22.2554 44.393 22.5159C44.393 22.863 44.2551 23.196 44.0097 23.4414C43.7642 23.6869 43.4313 23.8248 43.0841 23.8248Z" fill="#4D2C19"/>
</svg>
