<svg width="36" height="39" viewBox="0 0 36 39" fill="none" xmlns="http://www.w3.org/2000/svg">
<path opacity="0.5" d="M34.6735 27.1332V36.6227C34.6735 37.1663 34.4576 37.6877 34.0732 38.0721C33.6888 38.4565 33.1674 38.6724 32.6238 38.6724H2.31124C2.0418 38.6728 1.77492 38.6201 1.52587 38.5173C1.27682 38.4145 1.05049 38.2636 0.859822 38.0732C0.669152 37.8828 0.517881 37.6567 0.414674 37.4078C0.311468 37.1589 0.25835 36.8922 0.25835 36.6227V27.1332C0.25835 26.5888 0.474637 26.0666 0.859629 25.6816C1.24462 25.2966 1.76678 25.0803 2.31124 25.0803H10.0262C10.1214 25.1353 10.2006 25.214 10.256 25.3089C10.3115 25.4037 10.3413 25.5114 10.3425 25.6212V32.3556C10.3425 32.5184 10.4072 32.6745 10.5222 32.7895C10.6373 32.9046 10.7934 32.9692 10.9562 32.9692H23.1881C23.2703 32.9718 23.3521 32.9578 23.4288 32.9281C23.5054 32.8984 23.5753 32.8536 23.6344 32.7964C23.6934 32.7391 23.7403 32.6707 23.7723 32.5949C23.8043 32.5192 23.8208 32.4378 23.8207 32.3556V25.6371C23.822 25.5272 23.8518 25.4195 23.9072 25.3247C23.9627 25.2298 24.0419 25.1511 24.1371 25.0962H32.6365C33.1755 25.1003 33.6912 25.3162 34.0723 25.6974C34.4535 26.0785 34.6694 26.5942 34.6735 27.1332Z" fill="white"/>
<path d="M34.9443 27.1332V36.6227C34.9434 37.1666 34.7268 37.688 34.3419 38.0723C33.957 38.4566 33.4353 38.6724 32.8914 38.6724H2.57563C2.03172 38.6724 1.51002 38.4566 1.12512 38.0723C0.740222 37.688 0.523582 37.1666 0.522744 36.6227V27.1332C0.52358 26.589 0.740119 26.0674 1.12493 25.6825C1.50974 25.2977 2.03143 25.0812 2.57563 25.0803H10.2906C10.3857 25.1353 10.465 25.214 10.5204 25.3089C10.5759 25.4037 10.6057 25.5114 10.6069 25.6212V32.3556C10.6069 32.5184 10.6715 32.6745 10.7866 32.7895C10.9017 32.9046 11.0578 32.9692 11.2205 32.9692H23.4525C23.6153 32.9692 23.7713 32.9046 23.8864 32.7895C24.0015 32.6745 24.0662 32.5184 24.0662 32.3556V25.6371C24.0674 25.5272 24.0972 25.4195 24.1526 25.3247C24.2081 25.2298 24.2873 25.1511 24.3825 25.0962H32.8819C33.425 25.0945 33.9467 25.3078 34.3332 25.6894C34.7196 26.0711 34.9393 26.5901 34.9443 27.1332Z" fill="white"/>
<path d="M35.2092 25.2677V34.7572C35.2096 35.0269 35.1568 35.294 35.0538 35.5433C34.9508 35.7925 34.7996 36.019 34.6089 36.2097C34.4181 36.4004 34.1917 36.5516 33.9424 36.6546C33.6932 36.7577 33.426 36.8105 33.1563 36.8101H2.84056C2.57112 36.8101 2.30434 36.757 2.05545 36.6538C1.80656 36.5505 1.58045 36.3993 1.39007 36.2086C1.19969 36.0179 1.04877 35.7916 0.945946 35.5426C0.843124 35.2935 0.790423 35.0266 0.790839 34.7572V25.2677C0.790423 24.9983 0.843124 24.7314 0.945946 24.4823C1.04877 24.2333 1.19969 24.0069 1.39007 23.8163C1.58045 23.6256 1.80656 23.4744 2.05545 23.3711C2.30434 23.2679 2.57112 23.2148 2.84056 23.2148H10.5587C10.6547 23.268 10.7347 23.3459 10.7903 23.4405C10.8459 23.5351 10.8752 23.6428 10.875 23.7526V30.4584C10.8725 30.5404 10.8864 30.6219 10.9159 30.6984C10.9454 30.7748 10.9899 30.8446 11.0468 30.9035C11.1037 30.9625 11.1718 31.0095 11.2472 31.0417C11.3225 31.0739 11.4035 31.0907 11.4855 31.0911H23.7269C23.8897 31.0911 24.0458 31.0264 24.1608 30.9113C24.2759 30.7963 24.3406 30.6402 24.3406 30.4774V23.7526C24.3404 23.6428 24.3697 23.5351 24.4253 23.4405C24.4809 23.3459 24.5609 23.268 24.6569 23.2148H33.1532C33.4231 23.214 33.6906 23.2665 33.9402 23.3693C34.1898 23.4722 34.4167 23.6233 34.6077 23.814C34.7988 24.0048 34.9503 24.2314 35.0535 24.4809C35.1567 24.7303 35.2096 24.9977 35.2092 25.2677Z" stroke="#4D2C19" stroke-width="1.56558" stroke-miterlimit="10"/>
<path d="M30.7958 8.55953V20.7946C30.7962 20.8749 30.7807 20.9545 30.7502 21.0288C30.7197 21.103 30.6747 21.1705 30.6179 21.2272C30.5612 21.284 30.4937 21.329 30.4195 21.3595C30.3452 21.39 30.2656 21.4055 30.1853 21.4051H23.4636C23.3832 21.4051 23.3035 21.421 23.2292 21.4519C23.155 21.4828 23.0875 21.528 23.0308 21.5851C22.9741 21.6421 22.9292 21.7097 22.8987 21.7842C22.8682 21.8586 22.8527 21.9383 22.8531 22.0188V28.7373C22.8531 28.9001 22.7885 29.0561 22.6734 29.1712C22.5583 29.2863 22.4022 29.351 22.2395 29.351H10.0044C9.92377 29.351 9.84396 29.3351 9.76951 29.3043C9.69506 29.2734 9.62743 29.2282 9.57044 29.1712C9.51346 29.1142 9.46824 29.0466 9.4374 28.9721C9.40656 28.8977 9.3907 28.8179 9.3907 28.7373V22.0188C9.39112 21.9383 9.37563 21.8586 9.34514 21.7842C9.31464 21.7097 9.26974 21.6421 9.21301 21.5851C9.15627 21.528 9.08885 21.4828 9.01457 21.4519C8.9403 21.421 8.86065 21.4051 8.78021 21.4051H2.05849C1.9782 21.4055 1.89862 21.39 1.82436 21.3595C1.75011 21.329 1.68265 21.284 1.62587 21.2272C1.5691 21.1705 1.52414 21.103 1.49361 21.0288C1.46307 20.9545 1.44758 20.8749 1.448 20.7946V8.55953C1.44759 8.47909 1.46307 8.39935 1.49357 8.32492C1.52406 8.25048 1.56895 8.18282 1.62568 8.12579C1.68241 8.06877 1.74986 8.02353 1.82413 7.99265C1.89841 7.96178 1.97805 7.94586 2.05849 7.94586H8.78021C8.86065 7.94586 8.9403 7.92997 9.01457 7.8991C9.08885 7.86822 9.15627 7.82298 9.21301 7.76596C9.26974 7.70893 9.31464 7.64123 9.34514 7.56679C9.37563 7.49236 9.39112 7.41266 9.3907 7.33222V0.613673C9.3907 0.533087 9.40656 0.453282 9.4374 0.37883C9.46824 0.304378 9.51346 0.236725 9.57044 0.179743C9.62743 0.12276 9.69506 0.0775604 9.76951 0.0467215C9.84396 0.0158825 9.92377 0 10.0044 0H22.2395C22.4022 0 22.5583 0.0646603 22.6734 0.179743C22.7885 0.294825 22.8531 0.450922 22.8531 0.613673V7.33222C22.8527 7.41266 22.8682 7.49236 22.8987 7.56679C22.9292 7.64123 22.9741 7.70893 23.0308 7.76596C23.0875 7.82298 23.155 7.86822 23.2292 7.8991C23.3035 7.92997 23.3832 7.94586 23.4636 7.94586H30.1853C30.2658 7.94586 30.3454 7.96178 30.4197 7.99265C30.494 8.02353 30.5614 8.06877 30.6181 8.12579C30.6749 8.18282 30.7198 8.25048 30.7503 8.32492C30.7807 8.39935 30.7962 8.47909 30.7958 8.55953Z" fill="white"/>
<path d="M32.2863 10.2927V22.5278C32.2854 22.69 32.2204 22.8452 32.1054 22.9596C31.9904 23.074 31.8348 23.1383 31.6726 23.1383H24.9541C24.7916 23.1391 24.636 23.204 24.5211 23.3189C24.4062 23.4338 24.3412 23.5894 24.3404 23.7519V30.4578C24.3404 30.5384 24.3245 30.6182 24.2937 30.6927C24.2628 30.7671 24.2176 30.8348 24.1607 30.8918C24.1037 30.9487 24.036 30.9939 23.9616 31.0248C23.8871 31.0556 23.8073 31.0715 23.7267 31.0715H11.4853C11.4047 31.0715 11.3249 31.0556 11.2505 31.0248C11.176 30.9939 11.1084 30.9487 11.0514 30.8918C10.9944 30.8348 10.9492 30.7671 10.9184 30.6927C10.8875 30.6182 10.8717 30.5384 10.8717 30.4578V23.7519C10.8718 23.6422 10.8426 23.5344 10.7869 23.4399C10.7313 23.3453 10.6513 23.2673 10.5553 23.2142C10.4649 23.1654 10.3639 23.1393 10.2612 23.1383H3.54578C3.38357 23.1383 3.22796 23.074 3.11297 22.9596C2.99798 22.8452 2.93296 22.69 2.93212 22.5278V10.2927C2.93212 10.2122 2.94801 10.1326 2.97888 10.0583C3.00976 9.98406 3.05502 9.9166 3.11204 9.85986C3.16907 9.80313 3.23673 9.75823 3.31117 9.72773C3.3856 9.69724 3.46534 9.68175 3.54578 9.68217H10.2643C10.3449 9.68217 10.4247 9.66632 10.4992 9.63549C10.5736 9.60465 10.6413 9.55945 10.6982 9.50246C10.7552 9.44548 10.8004 9.37783 10.8313 9.30338C10.8621 9.22893 10.878 9.14912 10.878 9.06853V2.34682C10.8788 2.18462 10.9438 2.02933 11.0588 1.91494C11.1738 1.80054 11.3294 1.73631 11.4916 1.73631H23.7267C23.889 1.73631 24.0445 1.80054 24.1595 1.91494C24.2745 2.02933 24.3396 2.18462 24.3404 2.34682V9.06853C24.3404 9.14912 24.3563 9.22893 24.3871 9.30338C24.4179 9.37783 24.4631 9.44548 24.5201 9.50246C24.5771 9.55945 24.6448 9.60465 24.7192 9.63549C24.7937 9.66632 24.8735 9.68217 24.9541 9.68217H31.6726C31.753 9.68175 31.8328 9.69724 31.9072 9.72773C31.9816 9.75823 32.0493 9.80313 32.1063 9.85986C32.1634 9.9166 32.2086 9.98406 32.2395 10.0583C32.2704 10.1326 32.2863 10.2122 32.2863 10.2927Z" stroke="#4D2C19" stroke-width="1.56558" stroke-miterlimit="10"/>
</svg>
