<svg width="55" height="48" viewBox="0 0 55 48" fill="none" xmlns="http://www.w3.org/2000/svg">
<path d="M16.3065 0.829151C16.3065 1.45101 16.2513 1.65829 16.1131 1.65829C15.8229 1.65829 15.0905 2.30779 14.8555 2.76382C14.745 2.98493 14.6068 3.49623 14.5653 3.92463L14.4686 4.6985H13.598H12.7136V5.38945V6.08041H13.6118H14.5101V9.2588V12.4372H13.5427H12.5754V14.3719V16.3065H11.8844H11.1935V16.9975V17.6884H11.8844H12.5754V23.4648V29.2412L11.8568 28.5503C10.9447 27.6658 9.71482 27.0163 8.44347 26.7261L7.46231 26.505V25.2751V24.0452H6.77136H6.0804V25.3442V26.6432L5.47236 26.7261C5.1407 26.7814 4.42211 27.044 3.86935 27.3065C2.65327 27.8869 1.36809 29.1307 0.787688 30.2915C0.0138191 31.8392 0 31.8945 0 40.103V47.6759L1.42337 47.6897C6.42588 47.745 51.1721 47.7588 52.8995 47.7035L55 47.6344V40.1998C55 35.3216 54.9447 32.5163 54.848 32.0327C54.4334 30.0704 52.9548 28.1771 51.1307 27.3065C50.5779 27.044 49.8593 26.7814 49.5276 26.7261L48.9196 26.6432V25.3442V24.0452H48.2286H47.5377V25.2751V26.505L46.5565 26.7261C45.2852 27.0163 44.0553 27.6658 43.157 28.5503L42.4246 29.2412V23.4648V17.6884H43.1156C43.696 17.6884 43.8065 17.647 43.8065 17.4259C43.8065 17.2877 43.848 16.9699 43.8894 16.7349L43.9862 16.3065H43.1985H42.4246V14.3719V12.4372H41.4573H40.49V9.2588V6.08041H41.3882H42.2864V5.38945V4.6985H41.402H40.5314L40.4347 3.92463C40.3932 3.49623 40.255 2.98493 40.1445 2.76382C39.9095 2.30779 39.1771 1.65829 38.8869 1.65829C38.7487 1.65829 38.6935 1.45101 38.6935 0.829151V3.8147e-06H38.0025H37.3116V0.760056C37.3116 1.43719 37.2701 1.53392 36.9384 1.71357C36.0955 2.14196 35.5151 3.13694 35.5151 4.14573V4.6985H34.8932H34.2714V5.38945V6.08041H34.8932H35.5151V9.2588V12.4372H34.755H33.995V14.3719V16.3065H33.3731H32.7513V16.9975V17.6884H33.3731H33.995V19.1671V20.6457L33.2764 19.8719C32.0327 18.559 30.3882 17.6746 28.8128 17.4535L28.191 17.3706V16.5691V15.7538H27.5H26.809V16.5829C26.809 17.3706 26.7952 17.4121 26.4774 17.4121C25.8141 17.4121 23.9623 18.103 23.1193 18.6558C22.6357 18.9736 21.9724 19.554 21.6269 19.941L21.005 20.6596V19.1671V17.6884H21.6269H22.2487V16.9975V16.3065H21.6269H21.005V14.3719V12.4372H20.245H19.4849V9.2588V6.08041H20.1068H20.7286V5.38945V4.6985H20.1068H19.4849V4.14573C19.4849 3.13694 18.9045 2.14196 18.0754 1.71357C17.7299 1.53392 17.6884 1.43719 17.6884 0.760056V3.8147e-06H16.9975H16.3065V0.829151ZM17.8128 3.26131C17.9925 3.49623 18.103 3.82789 18.103 4.15955V4.6985H16.9837H15.8505L15.9334 4.07664C16.0163 3.24749 16.3342 2.90202 17.0113 2.90202C17.4121 2.90202 17.5917 2.98493 17.8128 3.26131ZM38.8178 3.26131C38.9975 3.49623 39.108 3.82789 39.108 4.15955V4.6985H38.0025H36.897V4.15955C36.897 3.38568 37.3254 2.90202 38.0025 2.90202C38.4171 2.90202 38.5967 2.98493 38.8178 3.26131ZM18.103 9.2588V12.4372H16.9975H15.892V9.2588V6.08041H16.9975H18.103V9.2588ZM39.108 9.2588V12.4372H38.0025H36.897V9.2588V6.08041H38.0025H39.108V9.2588ZM19.6231 15.0628V16.3065H16.7902H13.9573V15.0628V13.8191H16.7902H19.6231V15.0628ZM41.0427 15.0628V16.3065H38.2098H35.3769V15.0628V13.8191H38.2098H41.0427V15.0628ZM19.5955 20.0653L19.554 22.456H16.7902H14.0264L13.9849 20.0653L13.9573 17.6884H16.7902H19.6231L19.5955 20.0653ZM41.0427 20.0239V22.3731L40.3241 22.4422C39.9234 22.4837 38.6658 22.5113 37.5188 22.4837L35.446 22.456L35.4045 20.0653L35.3769 17.6884H38.2098H41.0427V20.0239ZM29.6696 19.0842C31.5352 19.7889 32.9033 21.1156 33.5804 22.9121L33.8568 23.6307H27.5H21.157L21.3505 23.0917C22.1382 20.8668 23.9209 19.3191 26.3254 18.794C27.1545 18.6143 28.7575 18.7525 29.6696 19.0842ZM19.5955 24.9573L19.6369 26.0905L16.8731 27.4862C15.353 28.2462 14.0817 28.8819 14.0402 28.8819C13.9296 28.8819 13.9435 23.9761 14.054 23.8518C14.1093 23.8103 15.3668 23.7827 16.8455 23.7965L19.554 23.8379L19.5955 24.9573ZM41.0151 24.9573L41.0565 26.0766L38.3065 27.4724C36.7864 28.2462 35.5013 28.8819 35.4598 28.8819C35.3492 28.8819 35.3492 23.9761 35.4736 23.8518C35.5289 23.8103 36.7864 23.7827 38.2651 23.7965L40.9736 23.8379L41.0151 24.9573ZM33.995 35.7224V46.4322H32.3367H30.6922L30.6508 38.7211C30.6093 31.0791 30.6093 31.0239 30.3053 30.4573C29.9045 29.7111 28.9786 28.9234 28.2739 28.7299C26.8367 28.343 25.3028 28.9372 24.5289 30.1809L24.1143 30.858L24.0452 38.6106L23.9761 46.3631L22.4975 46.4045L21.005 46.446V35.7224V25.0126H27.5H33.995V35.7224ZM19.6231 30.4573V33.2764L16.9284 34.6721C15.4359 35.446 14.1646 36.0678 14.0817 36.0678C13.9987 36.0678 13.9711 35.0452 13.9849 33.2626L14.0264 30.4711L16.7902 29.0616C18.3103 28.2877 19.5678 27.6382 19.5955 27.6382C19.6093 27.6382 19.6231 28.9096 19.6231 30.4573ZM41.0427 30.4573V33.2764L38.348 34.6721C36.8555 35.446 35.5842 36.0678 35.5013 36.0678C35.4183 36.0678 35.3907 35.0452 35.4045 33.2626L35.446 30.4711L38.2098 29.0616C39.7299 28.2877 40.9874 27.6382 41.0151 27.6382C41.0289 27.6382 41.0427 28.9096 41.0427 30.4573ZM8.36055 28.108C8.74749 28.2048 9.32789 28.4259 9.65955 28.5917C10.2814 28.9234 11.608 30.1395 11.608 30.402C11.608 30.4849 11.1658 30.5402 10.4334 30.5402H9.25879V29.9183V29.2965H8.56784H7.87688V29.9183V30.5402H6.90955H5.94221V29.9183V29.2965H5.25126H4.5603V29.9183V30.5402H3.37186H2.19724L2.48744 30.1256C3.1093 29.255 4.54648 28.3291 5.73492 28.0389C6.41206 27.8731 7.62814 27.9008 8.36055 28.108ZM49.4033 28.108C50.647 28.4259 51.6558 29.0754 52.3882 30.0013L52.8166 30.5402H51.6281H50.4397V29.9183V29.2965H49.7487H49.0578V29.9183V30.5402H48.0905H47.1231V29.9183V29.2965H46.4322H45.7412V29.9183V30.5402H44.5666C43.9171 30.5402 43.392 30.4987 43.392 30.4435C43.392 30.1947 44.1935 29.3656 44.843 28.9372C46.2387 28.0113 47.9108 27.7073 49.4033 28.108ZM28.6055 30.4711C28.8405 30.6922 29.0892 31.093 29.1721 31.3694C29.255 31.6734 29.2965 34.4372 29.2688 39.0389L29.2274 46.2249L27.3342 46.2663L25.4271 46.3078V38.8317C25.4271 30.5817 25.3995 30.8166 26.2977 30.25C26.9611 29.8354 28.0528 29.946 28.6055 30.4711ZM12.4925 32.3505C12.5339 32.5854 12.5754 35.8606 12.5754 39.6193V46.446L11.9259 46.4045L11.2626 46.3631L11.1935 42.0101C11.1244 37.7952 11.1106 37.6294 10.7927 36.9246C10.3643 35.9711 9.21734 34.9209 8.27764 34.6168C7.35176 34.299 5.95603 34.3957 5.1407 34.8103C4.3392 35.2111 3.49623 36.0955 3.12312 36.8832C2.84673 37.4774 2.83291 37.7952 2.76382 41.941L2.69472 46.3631L2.04523 46.4045L1.38191 46.446V39.495C1.38191 35.6671 1.42337 32.4058 1.46482 32.2261L1.54774 31.9221H6.97864H12.4095L12.4925 32.3505ZM53.5352 32.2261C53.5766 32.4058 53.6181 35.6671 53.6181 39.4812V46.4322H53.0101H52.3882L52.3467 41.9686C52.3053 36.9661 52.2776 36.8693 51.1997 35.6809C50.4121 34.8103 49.3618 34.3543 48.0905 34.3543C46.4045 34.3543 45.0364 35.1834 44.2487 36.6759L43.8756 37.3807L43.8065 41.8719L43.7374 46.3631L43.0879 46.4045L42.4246 46.446V39.6193C42.4246 35.8606 42.4661 32.5854 42.5075 32.3505L42.6043 31.9221H48.0214H53.4523L53.5352 32.2261ZM19.5955 37.7538L19.554 40.5314L16.9284 41.8995C15.4912 42.6319 14.2198 43.2538 14.1369 43.2538C13.9987 43.2538 13.9573 42.6181 13.9573 40.5038V37.7538L16.6244 36.358C18.0754 35.598 19.3606 34.9761 19.4573 34.9623C19.5955 34.9623 19.6231 35.5704 19.5955 37.7538ZM41.0151 37.7538L40.9736 40.5314L38.1822 41.9686L35.3769 43.4196V40.5867V37.7538L38.044 36.358C39.495 35.598 40.7802 34.9761 40.8769 34.9623C41.0151 34.9623 41.0427 35.5704 41.0151 37.7538ZM7.9598 35.9435C8.47111 36.1231 9.28643 36.9384 9.549 37.5188C9.78392 38.0163 9.81156 38.5 9.81156 42.1759V46.294H6.92337H4.03518L4.06281 42.1759C4.09045 38.196 4.09045 38.0578 4.40829 37.4083C5.07161 36.054 6.56407 35.4322 7.9598 35.9435ZM48.9749 35.8191C49.7073 36.0402 50.6055 36.9384 50.8266 37.6709C50.9372 38.0716 50.9925 39.4812 50.9925 42.2726V46.294H48.0905H45.1884V42.1068C45.1884 38.3342 45.2161 37.8781 45.451 37.3807C46.0867 36.0126 47.4962 35.3769 48.9749 35.8191ZM19.6231 44.2073C19.6231 45.8794 19.5817 46.2802 19.4296 46.3354C19.1671 46.446 14.4133 46.446 14.1508 46.3354C14.0264 46.294 13.9573 46.0452 13.9573 45.5892V44.9259L16.6935 43.544C18.1859 42.7839 19.4573 42.1621 19.5264 42.1482C19.5817 42.1482 19.6231 43.0741 19.6231 44.2073ZM41.0151 44.2487L40.9736 46.3631H38.2098H35.446L35.4045 45.6445L35.3631 44.9259L38.0992 43.544C39.6055 42.7839 40.8769 42.1621 40.946 42.1621C41.0013 42.1482 41.0289 43.1018 41.0151 44.2487Z" fill="#4D2C19"/>
</svg>
